<svg width="40" height="40" viewBox="0 0 40 40" fill="none" xmlns="http://www.w3.org/2000/svg">
<rect width="40" height="40" rx="8" fill="#FD4C5C"/>
<path fill-rule="evenodd" clip-rule="evenodd" d="M11 20.5C11 20.2159 11.1129 19.9434 11.3138 19.7425C11.5147 19.5416 11.7871 19.4288 12.0712 19.4288H24.4826L19.8827 14.831C19.6815 14.6299 19.5685 14.3571 19.5685 14.0726C19.5685 13.7881 19.6815 13.5153 19.8827 13.3142C20.0838 13.113 20.3566 13 20.6411 13C20.9256 13 21.1984 13.113 21.3996 13.3142L27.827 19.7416C27.9267 19.8411 28.0059 19.9593 28.0599 20.0894C28.1139 20.2196 28.1417 20.3591 28.1417 20.5C28.1417 20.6409 28.1139 20.7804 28.0599 20.9106C28.0059 21.0407 27.9267 21.1589 27.827 21.2584L21.3996 27.6858C21.1984 27.887 20.9256 28 20.6411 28C20.3566 28 20.0838 27.887 19.8827 27.6858C19.6815 27.4847 19.5685 27.2119 19.5685 26.9274C19.5685 26.6429 19.6815 26.3701 19.8827 26.169L24.4826 21.5712H12.0712C11.7871 21.5712 11.5147 21.4584 11.3138 21.2575C11.1129 21.0566 11 20.7841 11 20.5Z" fill="white"/>
</svg>
