<svg width="40" height="40" viewBox="0 0 40 40" fill="none" xmlns="http://www.w3.org/2000/svg">
<rect x="40" y="40" width="40" height="40" rx="8" transform="rotate(-180 40 40)" fill="#FD4C5C"/>
<path fill-rule="evenodd" clip-rule="evenodd" d="M29 19.5C29 19.7841 28.8871 20.0566 28.6862 20.2575C28.4853 20.4584 28.2129 20.5712 27.9288 20.5712L15.5174 20.5712L20.1173 25.169C20.3185 25.3701 20.4315 25.6429 20.4315 25.9274C20.4315 26.2119 20.3185 26.4847 20.1173 26.6858C19.9162 26.887 19.6433 27 19.3589 27C19.0744 27 18.8016 26.887 18.6004 26.6858L12.173 20.2584C12.0733 20.1589 11.9941 20.0407 11.9401 19.9106C11.8861 19.7804 11.8583 19.6409 11.8583 19.5C11.8583 19.3591 11.8861 19.2196 11.9401 19.0894C11.9941 18.9593 12.0733 18.8411 12.173 18.7416L18.6004 12.3141C18.8016 12.113 19.0744 12 19.3589 12C19.6433 12 19.9162 12.113 20.1173 12.3141C20.3185 12.5153 20.4315 12.7881 20.4315 13.0726C20.4315 13.3571 20.3185 13.6299 20.1173 13.831L15.5174 18.4288L27.9288 18.4288C28.2129 18.4288 28.4853 18.5416 28.6862 18.7425C28.8871 18.9434 29 19.2159 29 19.5Z" fill="white"/>
</svg>
