<svg width="19" height="13" viewBox="0 0 19 13" fill="none" xmlns="http://www.w3.org/2000/svg">
<path d="M0.617889 1.04278C3.19455 3.0346 7.7158 6.53881 9.04465 7.63143C9.22304 7.7789 9.41438 7.85387 9.61301 7.85387C9.81123 7.85387 10.0022 7.7796 10.1802 7.63283C11.5102 6.53914 16.0315 3.0346 18.6082 1.04278C18.7686 0.919011 18.793 0.701458 18.6632 0.550141C18.3629 0.200483 17.9153 0 17.4355 0H1.7905C1.31077 0 0.863089 0.200484 0.562887 0.550175C0.433009 0.701458 0.457467 0.919011 0.617889 1.04278Z" fill="#32324B"/>
<path d="M18.7733 2.1202C18.6346 2.06129 18.4715 2.08184 18.3562 2.17181C15.4987 4.38288 11.8518 7.21703 10.7043 8.16078C10.0603 8.6914 9.16656 8.6914 8.52105 8.16007C7.29803 7.15424 3.20264 3.97636 0.870039 2.17177C0.753911 2.08181 0.590445 2.06196 0.45294 2.12016C0.314701 2.17877 0.226074 2.30498 0.226074 2.44408V11.4223C0.226074 12.2099 0.927718 12.8504 1.79059 12.8504H17.4356C18.2985 12.8504 19.0001 12.2099 19.0001 11.4223V2.44408C19.0001 2.30498 18.9115 2.17844 18.7733 2.1202Z" fill="#32324B"/>
</svg>
