<svg width="738" height="875" viewBox="0 0 738 875" fill="none" xmlns="http://www.w3.org/2000/svg">
<g opacity="0.9">
<mask id="mask0_1_309" style="mask-type:alpha" maskUnits="userSpaceOnUse" x="15" y="11" width="815" height="849">
<line x1="123.199" y1="472.487" x2="633.421" y2="209.981" stroke="#536476" stroke-width="4"/>
<line x1="132.544" y1="490.651" x2="642.766" y2="228.145" stroke="#536476" stroke-width="4"/>
<line x1="141.889" y1="508.815" x2="652.111" y2="246.309" stroke="#536476" stroke-width="4"/>
<line x1="151.233" y1="526.977" x2="661.455" y2="264.471" stroke="#536476" stroke-width="4"/>
<line x1="160.578" y1="545.139" x2="670.8" y2="282.633" stroke="#536476" stroke-width="4"/>
<line x1="169.923" y1="563.304" x2="680.145" y2="300.797" stroke="#536476" stroke-width="4"/>
<line x1="179.268" y1="581.466" x2="689.49" y2="318.96" stroke="#536476" stroke-width="4"/>
<line x1="188.614" y1="599.63" x2="698.836" y2="337.124" stroke="#536476" stroke-width="4"/>
<line x1="197.959" y1="617.792" x2="708.181" y2="355.286" stroke="#536476" stroke-width="4"/>
<line x1="207.302" y1="635.956" x2="717.524" y2="373.45" stroke="#536476" stroke-width="4"/>
<line x1="216.647" y1="654.12" x2="726.869" y2="391.614" stroke="#536476" stroke-width="4"/>
<line x1="16.4036" y1="275.918" x2="526.625" y2="13.4117" stroke="#536476" stroke-width="4"/>
<line x1="25.7486" y1="294.082" x2="535.97" y2="31.576" stroke="#536476" stroke-width="4"/>
<line x1="35.0936" y1="312.246" x2="545.315" y2="49.7402" stroke="#536476" stroke-width="4"/>
<line x1="44.4375" y1="330.408" x2="554.659" y2="67.9023" stroke="#536476" stroke-width="4"/>
<line x1="53.7825" y1="348.571" x2="564.004" y2="86.0644" stroke="#536476" stroke-width="4"/>
<line x1="63.1275" y1="366.735" x2="573.349" y2="104.229" stroke="#536476" stroke-width="4"/>
<line x1="72.4725" y1="384.897" x2="582.694" y2="122.391" stroke="#536476" stroke-width="4"/>
<line x1="81.8175" y1="403.063" x2="592.039" y2="140.557" stroke="#536476" stroke-width="4"/>
<line x1="91.1614" y1="421.223" x2="601.383" y2="158.717" stroke="#536476" stroke-width="4"/>
<line x1="100.506" y1="439.387" x2="610.728" y2="176.881" stroke="#536476" stroke-width="4"/>
<line x1="109.851" y1="457.551" x2="620.073" y2="195.045" stroke="#536476" stroke-width="4"/>
<line x1="225.367" y1="676.094" x2="735.589" y2="413.588" stroke="#536476" stroke-width="4"/>
<line x1="234.712" y1="694.258" x2="744.934" y2="431.752" stroke="#536476" stroke-width="4"/>
<line x1="244.057" y1="712.422" x2="754.279" y2="449.916" stroke="#536476" stroke-width="4"/>
<line x1="253.401" y1="730.584" x2="763.623" y2="468.078" stroke="#536476" stroke-width="4"/>
<line x1="262.746" y1="748.746" x2="772.968" y2="486.24" stroke="#536476" stroke-width="4"/>
<line x1="272.091" y1="766.91" x2="782.313" y2="504.404" stroke="#536476" stroke-width="4"/>
<line x1="281.436" y1="785.073" x2="791.658" y2="522.566" stroke="#536476" stroke-width="4"/>
<line x1="290.781" y1="803.237" x2="801.003" y2="540.731" stroke="#536476" stroke-width="4"/>
<line x1="300.127" y1="821.399" x2="810.349" y2="558.893" stroke="#536476" stroke-width="4"/>
<line x1="309.47" y1="839.563" x2="819.692" y2="577.057" stroke="#536476" stroke-width="4"/>
<line x1="318.815" y1="857.727" x2="829.037" y2="595.221" stroke="#536476" stroke-width="4"/>
</mask>
<g mask="url(#mask0_1_309)">
<circle cx="501.399" cy="426.827" r="155.982" transform="rotate(1.73384 501.399 426.827)" fill="#FFC83E"/>
</g>
</g>
</svg>
