<svg width="13" height="12" viewBox="0 0 13 12" fill="none" xmlns="http://www.w3.org/2000/svg">
<path d="M12.0399 11.4127V11.4122H12.0427V7.2789C12.0427 5.25685 11.6052 3.69922 9.22954 3.69922C8.08748 3.69922 7.32107 4.32283 7.00819 4.91405H6.97515V3.88799H4.72266V11.4122H7.06812V7.68651C7.06812 6.70553 7.255 5.75696 8.47587 5.75696C9.67881 5.75696 9.69674 6.87646 9.69674 7.74943V11.4127H12.0399Z" fill="#000B33"/>
<path d="M0.902344 3.90137H3.25064V11.4256H0.902344V3.90137Z" fill="#000B33"/>
<path d="M2.08274 0.155273C1.33191 0.155273 0.722656 0.761514 0.722656 1.50863C0.722656 2.25575 1.33191 2.87467 2.08274 2.87467C2.83358 2.87467 3.44283 2.25575 3.44283 1.50863C3.44236 0.761514 2.8331 0.155273 2.08274 0.155273V0.155273Z" fill="#000B33"/>
</svg>
