<svg width="93" height="20" viewBox="0 0 93 20" fill="none" xmlns="http://www.w3.org/2000/svg">
<path d="M23.52 2.32L18.576 19H15.48L11.976 6.376L8.256 19L5.184 19.024L0.456 2.32H3.36L6.816 15.904L10.56 2.32H13.632L17.112 15.832L20.592 2.32H23.52ZM37.8966 12.064C37.8966 12.56 37.8646 13.008 37.8006 13.408H27.6966C27.7766 14.464 28.1686 15.312 28.8726 15.952C29.5766 16.592 30.4406 16.912 31.4646 16.912C32.9366 16.912 33.9766 16.296 34.5846 15.064H37.5366C37.1366 16.28 36.4086 17.28 35.3526 18.064C34.3126 18.832 33.0166 19.216 31.4646 19.216C30.2006 19.216 29.0646 18.936 28.0566 18.376C27.0646 17.8 26.2806 17 25.7046 15.976C25.1446 14.936 24.8646 13.736 24.8646 12.376C24.8646 11.016 25.1366 9.824 25.6806 8.8C26.2406 7.76 27.0166 6.96 28.0086 6.4C29.0166 5.84 30.1686 5.56 31.4646 5.56C32.7126 5.56 33.8246 5.832 34.8006 6.376C35.7766 6.92 36.5366 7.688 37.0806 8.68C37.6246 9.656 37.8966 10.784 37.8966 12.064ZM35.0406 11.2C35.0246 10.192 34.6646 9.384 33.9606 8.776C33.2566 8.168 32.3846 7.864 31.3446 7.864C30.4006 7.864 29.5926 8.168 28.9206 8.776C28.2486 9.368 27.8486 10.176 27.7206 11.2H35.0406ZM43.3251 7.744C43.7891 7.104 44.4211 6.584 45.2211 6.184C46.0371 5.768 46.9411 5.56 47.9331 5.56C49.1011 5.56 50.1571 5.84 51.1011 6.4C52.0451 6.96 52.7891 7.76 53.3331 8.8C53.8771 9.824 54.1491 11 54.1491 12.328C54.1491 13.656 53.8771 14.848 53.3331 15.904C52.7891 16.944 52.0371 17.76 51.0771 18.352C50.1331 18.928 49.0851 19.216 47.9331 19.216C46.9091 19.216 45.9971 19.016 45.1971 18.616C44.4131 18.216 43.7891 17.704 43.3251 17.08V19H40.5891V1.24H43.3251V7.744ZM51.3651 12.328C51.3651 11.416 51.1731 10.632 50.7891 9.976C50.4211 9.304 49.9251 8.8 49.3011 8.464C48.6931 8.112 48.0371 7.936 47.3331 7.936C46.6451 7.936 45.9891 8.112 45.3651 8.464C44.7571 8.816 44.2611 9.328 43.8771 10C43.5091 10.672 43.3251 11.464 43.3251 12.376C43.3251 13.288 43.5091 14.088 43.8771 14.776C44.2611 15.448 44.7571 15.96 45.3651 16.312C45.9891 16.664 46.6451 16.84 47.3331 16.84C48.0371 16.84 48.6931 16.664 49.3011 16.312C49.9251 15.944 50.4211 15.416 50.7891 14.728C51.1731 14.04 51.3651 13.24 51.3651 12.328ZM62.5187 12.304L66.7907 19H63.6947L60.8387 14.512L58.1507 19H55.2947L59.5667 12.496L55.2947 5.776H58.3907L61.2467 10.264L63.9347 5.776H66.7907L62.5187 12.304ZM70.2233 4.024C69.7273 4.024 69.3113 3.856 68.9753 3.52C68.6393 3.184 68.4713 2.768 68.4713 2.272C68.4713 1.776 68.6393 1.36 68.9753 1.024C69.3113 0.687999 69.7273 0.519999 70.2233 0.519999C70.7033 0.519999 71.1113 0.687999 71.4473 1.024C71.7833 1.36 71.9513 1.776 71.9513 2.272C71.9513 2.768 71.7833 3.184 71.4473 3.52C71.1113 3.856 70.7033 4.024 70.2233 4.024ZM71.5673 5.776V19H68.8313V5.776H71.5673ZM87.2794 12.064C87.2794 12.56 87.2474 13.008 87.1834 13.408H77.0794C77.1594 14.464 77.5514 15.312 78.2554 15.952C78.9594 16.592 79.8234 16.912 80.8474 16.912C82.3194 16.912 83.3594 16.296 83.9674 15.064H86.9194C86.5194 16.28 85.7914 17.28 84.7354 18.064C83.6954 18.832 82.3994 19.216 80.8474 19.216C79.5834 19.216 78.4474 18.936 77.4394 18.376C76.4474 17.8 75.6634 17 75.0874 15.976C74.5274 14.936 74.2474 13.736 74.2474 12.376C74.2474 11.016 74.5194 9.824 75.0634 8.8C75.6234 7.76 76.3994 6.96 77.3914 6.4C78.3994 5.84 79.5514 5.56 80.8474 5.56C82.0954 5.56 83.2074 5.832 84.1834 6.376C85.1594 6.92 85.9194 7.688 86.4634 8.68C87.0074 9.656 87.2794 10.784 87.2794 12.064ZM84.4234 11.2C84.4074 10.192 84.0474 9.384 83.3434 8.776C82.6394 8.168 81.7674 7.864 80.7274 7.864C79.7834 7.864 78.9754 8.168 78.3034 8.776C77.6314 9.368 77.2314 10.176 77.1034 11.2H84.4234ZM92.7079 1.24V19H89.9719V1.24H92.7079Z" fill="white"/>
</svg>
