<svg width="23" height="17" viewBox="0 0 23 17" fill="none" xmlns="http://www.w3.org/2000/svg">
<path d="M21.689 7.50012H1.43441C0.774344 7.50012 0.239258 7.92545 0.239258 8.45012V8.55012C0.239258 9.07479 0.774344 9.50012 1.43441 9.50012H21.689C22.3491 9.50012 22.8842 9.07479 22.8842 8.55012V8.45012C22.8842 7.92545 22.3491 7.50012 21.689 7.50012Z" fill="white"/>
<path d="M21.689 15.0003H1.43441C0.774344 15.0003 0.239258 15.4256 0.239258 15.9503V16.0503C0.239258 16.5749 0.774344 17.0003 1.43441 17.0003H21.689C22.3491 17.0003 22.8842 16.5749 22.8842 16.0503V15.9503C22.8842 15.4256 22.3491 15.0003 21.689 15.0003Z" fill="white"/>
<path d="M21.689 0H1.43441C0.774344 0 0.239258 0.425329 0.239258 0.95V1.05C0.239258 1.57467 0.774344 2 1.43441 2H21.689C22.3491 2 22.8842 1.57467 22.8842 1.05V0.95C22.8842 0.425329 22.3491 0 21.689 0Z" fill="white"/>
</svg>
