<svg width="80" height="80" viewBox="0 0 80 80" fill="none" xmlns="http://www.w3.org/2000/svg">
<circle opacity="0.1" cx="40" cy="40" r="40" fill="#00BB98"/>
<mask id="path-2-inside-1_4_328" fill="white">
<path d="M48.152 20H54.922C55.5916 20.0026 56.2542 20.1371 56.8718 20.3959C57.4895 20.6546 58.0501 21.0325 58.5217 21.508C58.9932 21.9835 59.3665 22.5472 59.6201 23.1669C59.8738 23.7867 60.0029 24.4504 60 25.12V31.95C60.0029 32.6196 59.8738 33.2833 59.6201 33.9031C59.3665 34.5228 58.9932 35.0865 58.5217 35.562C58.0501 36.0375 57.4895 36.4154 56.8718 36.6741C56.2542 36.9329 55.5916 37.0674 54.922 37.07H48.152C47.4823 37.0674 46.8197 36.9329 46.2021 36.6741C45.5844 36.4154 45.0238 36.0375 44.5523 35.562C44.0807 35.0865 43.7074 34.5228 43.4538 33.9031C43.2001 33.2833 43.0711 32.6196 43.074 31.95V25.12C43.0711 24.4504 43.2001 23.7867 43.4538 23.1669C43.7074 22.5472 44.0807 21.9835 44.5523 21.508C45.0238 21.0325 45.5844 20.6546 46.2021 20.3959C46.8197 20.1371 47.4823 20.0026 48.152 20Z"/>
</mask>
<path d="M54.922 20L54.9376 16L54.9298 16H54.922V20ZM60 25.12L56 25.1027L56 25.1114V25.12H60ZM60 31.95H56V31.9586L56 31.9673L60 31.95ZM54.922 37.07V41.07H54.9298L54.9376 41.07L54.922 37.07ZM48.152 37.07L48.1363 41.07L48.1441 41.07H48.152V37.07ZM43.074 31.95L47.0739 31.9673L47.074 31.9586V31.95H43.074ZM43.074 25.12H47.074V25.1114L47.0739 25.1027L43.074 25.12ZM48.152 24H54.922V16H48.152V24ZM54.9063 24C55.0505 24.0005 55.1932 24.0295 55.3263 24.0852L58.4174 16.7066C57.3151 16.2448 56.1327 16.0047 54.9376 16L54.9063 24ZM55.3263 24.0852C55.4593 24.141 55.58 24.2224 55.6816 24.3248L61.3617 18.6913C60.5201 17.8427 59.5197 17.1683 58.4174 16.7066L55.3263 24.0852ZM55.6816 24.3248C55.7832 24.4272 55.8636 24.5486 55.9182 24.6821L63.3221 21.6518C62.8694 20.5458 62.2033 19.5398 61.3617 18.6913L55.6816 24.3248ZM55.9182 24.6821C55.9728 24.8155 56.0006 24.9585 56 25.1027L63.9999 25.1373C64.0051 23.9422 63.7748 22.7578 63.3221 21.6518L55.9182 24.6821ZM56 25.12V31.95H64V25.12H56ZM56 31.9673C56.0006 32.1115 55.9728 32.2545 55.9182 32.3879L63.3221 35.4182C63.7748 34.3122 64.0051 33.1278 63.9999 31.9327L56 31.9673ZM55.9182 32.3879C55.8636 32.5214 55.7832 32.6428 55.6816 32.7452L61.3617 38.3787C62.2033 37.5302 62.8694 36.5242 63.3221 35.4182L55.9182 32.3879ZM55.6816 32.7452C55.58 32.8476 55.4593 32.929 55.3263 32.9848L58.4174 40.3634C59.5197 39.9017 60.5201 39.2273 61.3617 38.3787L55.6816 32.7452ZM55.3263 32.9848C55.1932 33.0405 55.0505 33.0695 54.9063 33.07L54.9376 41.07C56.1327 41.0653 57.3151 40.8252 58.4174 40.3634L55.3263 32.9848ZM54.922 33.07H48.152V41.07H54.922V33.07ZM48.1676 33.07C48.0234 33.0695 47.8807 33.0405 47.7477 32.9848L44.6565 40.3634C45.7588 40.8252 46.9412 41.0653 48.1363 41.07L48.1676 33.07ZM47.7477 32.9848C47.6146 32.929 47.4939 32.8476 47.3923 32.7452L41.7122 38.3787C42.5538 39.2273 43.5543 39.9017 44.6565 40.3634L47.7477 32.9848ZM47.3923 32.7452C47.2908 32.6428 47.2104 32.5214 47.1557 32.3879L39.7518 35.4182C40.2045 36.5242 40.8707 37.5302 41.7122 38.3787L47.3923 32.7452ZM47.1557 32.3879C47.1011 32.2545 47.0733 32.1115 47.0739 31.9673L39.074 31.9327C39.0688 33.1278 39.2992 34.3122 39.7518 35.4182L47.1557 32.3879ZM47.074 31.95V25.12H39.074V31.95H47.074ZM47.0739 25.1027C47.0733 24.9585 47.1011 24.8155 47.1557 24.6821L39.7518 21.6518C39.2992 22.7578 39.0688 23.9422 39.074 25.1373L47.0739 25.1027ZM47.1557 24.6821C47.2104 24.5486 47.2908 24.4272 47.3923 24.3248L41.7122 18.6913C40.8707 19.5398 40.2045 20.5458 39.7518 21.6518L47.1557 24.6821ZM47.3923 24.3248C47.4939 24.2224 47.6146 24.141 47.7477 24.0852L44.6565 16.7066C43.5543 17.1683 42.5538 17.8427 41.7122 18.6913L47.3923 24.3248ZM47.7477 24.0852C47.8807 24.0295 48.0234 24.0005 48.1676 24L48.1363 16C46.9412 16.0047 45.7588 16.2448 44.6565 16.7066L47.7477 24.0852Z" fill="#00BB98" mask="url(#path-2-inside-1_4_328)"/>
<path d="M31.3334 44.93L31.8402 44.932C32.2472 44.9336 32.6498 45.0153 33.0251 45.1726C33.4005 45.3298 33.7412 45.5595 34.0277 45.8484C34.3143 46.1373 34.5411 46.4799 34.6953 46.8565C34.8494 47.2331 34.9278 47.6364 34.9261 48.0434H34.9261V48.052L34.926 54.88L34.9261 54.8879C34.9293 55.7098 34.606 56.4994 34.0271 57.083C33.4492 57.6657 32.6639 57.9954 31.8433 58H25.0845C24.6785 57.998 24.2769 57.9162 23.9025 57.7594C23.527 57.6021 23.1861 57.3724 22.8994 57.0835C22.6127 56.7945 22.3857 56.4518 22.2314 56.0751C22.077 55.6984 21.9984 55.295 22.0001 54.8879V54.88L22.0001 48.05L22 48.0414C21.9983 47.6344 22.0767 47.2311 22.2309 46.8545C22.385 46.4779 22.6118 46.1353 22.8984 45.8464C23.185 45.5575 23.5256 45.3278 23.901 45.1706C24.2753 45.0138 24.6767 44.932 25.0825 44.93H31.3334ZM54.4074 44.93L54.9142 44.932C55.3212 44.9336 55.7238 45.0153 56.0991 45.1726C56.4745 45.3298 56.8152 45.5595 57.1017 45.8484C57.3883 46.1373 57.6151 46.4799 57.7693 46.8565C57.9234 47.2331 58.0018 47.6364 58.0001 48.0434V48.052L58 54.88L58.0001 54.8879C58.0033 55.7098 57.68 56.4994 57.1011 57.083C56.5232 57.6657 55.7379 57.9954 54.9173 58H48.1568C47.3362 57.9954 46.5509 57.6657 45.973 57.083C45.3942 56.4994 45.0708 55.7098 45.0741 54.8879V54.88L45.0741 48.05L45.074 48.0414C45.0723 47.6344 45.1507 47.2311 45.3049 46.8545C45.459 46.4779 45.6858 46.1353 45.9724 45.8464C46.259 45.5575 46.5996 45.3278 46.975 45.1706C47.3493 45.0138 47.7507 44.932 48.1565 44.93H54.4074ZM34.9261 25.1114H34.9261V25.12V31.95H34.926L34.9261 31.9586C34.9278 32.3656 34.8494 32.7689 34.6953 33.1455C34.5411 33.5221 34.3143 33.8647 34.0277 34.1536C33.7412 34.4425 33.4005 34.6722 33.0251 34.8294C32.6509 34.9862 32.2494 35.068 31.8436 35.07H25.084C24.6779 35.0682 24.2761 34.9865 23.9015 34.8297C23.526 34.6724 23.1851 34.4427 22.8984 34.1536C22.6117 33.8645 22.3848 33.5218 22.2306 33.1449C22.0765 32.7681 21.9981 32.3646 22 31.9574H22.0001V31.948V25.12H22.0001L22 25.1114C21.9983 24.7044 22.0767 24.3011 22.2309 23.9245C22.385 23.5479 22.6118 23.2053 22.8984 22.9164C23.185 22.6275 23.5256 22.3978 23.901 22.2406C24.2753 22.0838 24.6767 22.002 25.0825 22H31.8436C32.2494 22.002 32.6509 22.0838 33.0251 22.2406C33.4005 22.3978 33.7412 22.6275 34.0277 22.9164C34.3143 23.2053 34.5411 23.5479 34.6953 23.9245C34.8494 24.3011 34.9278 24.7044 34.9261 25.1114Z" stroke="#00BB98" stroke-width="4"/>
</svg>
