<svg width="14" height="12" viewBox="0 0 14 12" fill="none" xmlns="http://www.w3.org/2000/svg">
<path d="M14 1.48865C13.4816 1.71494 12.9291 1.86494 12.3532 1.93777C12.9457 1.58575 13.3979 1.03259 13.6105 0.365851C13.0581 0.693586 12.4481 0.925082 11.7981 1.05427C11.2736 0.498506 10.526 0.154297 9.7104 0.154297C8.12805 0.154297 6.85416 1.43229 6.85416 2.999C6.85416 3.22443 6.87333 3.44119 6.92038 3.64754C4.54424 3.53222 2.4417 2.39902 1.02926 0.672778C0.782675 1.09849 0.638033 1.58575 0.638033 2.1103C0.638033 3.09524 1.14777 3.96834 1.90757 4.47381C1.44838 4.46514 0.997896 4.33249 0.61625 4.12354C0.61625 4.13221 0.61625 4.14348 0.61625 4.15475C0.61625 5.53679 1.60696 6.68473 2.90613 6.94917C2.67348 7.01246 2.41992 7.04281 2.15677 7.04281C1.97379 7.04281 1.78907 7.0324 1.61567 6.99425C1.98599 8.12052 3.03683 8.94853 4.28632 8.97541C3.31391 9.73232 2.07923 10.1884 0.742594 10.1884C0.508204 10.1884 0.283399 10.178 0.0585938 10.1494C1.32465 10.9618 2.82509 11.4256 4.44317 11.4256C9.70256 11.4256 12.578 7.09049 12.578 3.33281C12.578 3.20709 12.5736 3.08571 12.5675 2.96519C13.1348 2.56463 13.6114 2.06435 14 1.48865Z" fill="#32324B"/>
</svg>
