<svg width="98" height="102" viewBox="0 0 98 102" fill="none" xmlns="http://www.w3.org/2000/svg">
<g clip-path="url(#clip0_12_302)">
<path fill-rule="evenodd" clip-rule="evenodd" d="M72.9855 45.631H97.6266V54.5087C97.6266 56.7037 95.8994 58.4965 93.7846 58.4965H84.9212L79.6343 61.2662L72.9854 58.4965V45.631H72.9855Z" fill="#FD4C5C"/>
<path fill-rule="evenodd" clip-rule="evenodd" d="M76.8293 32.7471H93.7864C95.9011 32.7471 97.6284 34.5398 97.6284 36.7348V43.3314H72.9873V36.7348C72.9873 34.5398 74.7146 32.7471 76.8293 32.7471Z" fill="#FD4C5C"/>
<path fill-rule="evenodd" clip-rule="evenodd" d="M72.9873 41.3441H97.6284V47.6132H72.9873V41.3441Z" fill="#FD4C5C"/>
<path fill-rule="evenodd" clip-rule="evenodd" d="M92.4828 41.3434H95.6384H97.6259V36.735C97.6259 35.2352 96.8175 33.9252 95.6384 33.2471C95.0848 32.9311 94.4537 32.7471 93.7837 32.7471H88.6406C90.7554 32.7471 92.4826 34.5398 92.4826 36.7348V41.3434H92.4828Z" fill="#FFC269"/>
<path fill-rule="evenodd" clip-rule="evenodd" d="M92.4834 47.6132H95.6389H97.6265V45.6307V43.3323V41.3441H95.6389H92.4834V43.3323V45.6307V47.6132Z" fill="#FD4C5C"/>
<path fill-rule="evenodd" clip-rule="evenodd" d="M92.4826 47.6132V54.5086C92.4826 56.7036 90.7554 58.4964 88.6406 58.4964H93.7837C94.4535 58.4964 95.0846 58.3182 95.6383 58.0023C96.8175 57.3184 97.6259 56.0084 97.6259 54.5086V47.6132H95.6383H92.4826Z" fill="#FFC269"/>
<path fill-rule="evenodd" clip-rule="evenodd" d="M72.9844 58.4956H84.9203V64.1899C84.9203 65.5576 83.8409 66.6722 82.5288 66.6722H43.667C43.667 63.0924 43.667 61.2708 46.3076 61.2708L51.5669 61.2651C54.8776 61.2594 57.0477 60.3801 58.26 58.4954H72.9844V58.4956Z" fill="#6F6571"/>
<path fill-rule="evenodd" clip-rule="evenodd" d="M48.3574 66.6732H82.5317C84.5357 70.2933 86.1468 74.6432 84.7572 82.9635C82.432 74.758 58.815 78.0334 56.3903 87.5029H30.3319C29.3465 85.1872 28.4164 82.9002 27.6025 80.5904H34.9489C49.8077 74.7751 45.0301 77.3667 48.3574 66.6732Z" fill="#FD4C5C"/>
<path fill-rule="evenodd" clip-rule="evenodd" d="M46.2458 44.43C46.7552 47.2111 47.4472 49.9521 48.2222 52.2849L55.7342 55.3376L64.1106 52.2849C63.8171 35.8452 57.8935 27.9616 52.8557 25.4103C51.0399 23.9764 49.1797 23.4363 49.1797 23.4363C49.1797 23.4363 46.7328 27.4962 46.6054 27.4962C45.6644 29.8176 45.31 32.8459 45.3709 36.1154L46.2458 44.43Z" fill="#ECEAEC"/>
<path fill-rule="evenodd" clip-rule="evenodd" d="M64.1104 52.2858H48.2218C44.5623 52.6994 40.0615 55.5899 40.0615 64.5423V73.9257L43.6673 76.1532L48.3545 73.9257V66.674C48.3545 63.0942 48.3545 61.2726 50.9951 61.2726L56.2544 61.2669C59.565 61.2612 61.7351 60.382 62.9475 58.4972C63.8833 57.0436 64.2431 54.9922 64.1104 52.2858Z" fill="#FD4C5C"/>
<path fill-rule="evenodd" clip-rule="evenodd" d="M64.1114 52.2848C63.8179 35.8451 57.8944 27.9614 52.8565 25.4102C52.1092 25.956 51.2786 26.4042 50.3652 26.7375C54.8274 30.2368 59.3005 38.0574 59.5551 52.2848H64.1114Z" fill="#DAD8DB"/>
<path fill-rule="evenodd" clip-rule="evenodd" d="M64.1114 52.2858H59.5553C59.6882 54.9922 59.3284 57.0436 58.3928 58.4974C57.6288 59.6869 56.4773 60.6924 54.8994 61.2671H56.2559C59.5665 61.2614 61.7366 60.3822 62.9489 58.4974C63.8843 57.0436 64.2441 54.9922 64.1114 52.2858Z" fill="#FD4C5C"/>
<path fill-rule="evenodd" clip-rule="evenodd" d="M56.3877 87.5027C56.3877 79.0043 62.8815 72.2352 70.8922 72.2352C77.4082 72.2352 82.9221 76.7172 84.7546 82.9633C85.1311 84.2446 85.3525 85.6066 85.3912 87.02C85.4079 87.5717 85.0424 87.5027 84.5441 87.5027C75.1606 87.5027 65.7713 87.497 56.3877 87.5027Z" fill="#FD4C5C"/>
<path fill-rule="evenodd" clip-rule="evenodd" d="M60.0371 87.5028H82.1151C81.7996 93.6741 76.9777 98.5814 71.0761 98.5814C65.1745 98.5814 60.3526 93.6741 60.0371 87.5028Z" fill="#6F6571"/>
<path fill-rule="evenodd" clip-rule="evenodd" d="M3.97305 85.0605L22.9673 89.5943C21.7605 95.036 16.5289 98.4376 11.2862 97.185C6.03813 95.9324 2.76619 90.5023 3.97305 85.0605Z" fill="#6F6571"/>
<path fill-rule="evenodd" clip-rule="evenodd" d="M2.55005 79.5378C5.23505 75.4868 9.89642 73.1366 14.7682 73.6423C23.3603 75.5271 26.156 80.8537 26.7151 87.4964C26.7041 88.3984 26.6099 89.3064 26.4216 90.2144C26.3663 90.4672 26.2057 90.3638 25.9399 90.3005L22.9669 89.5936L3.97265 85.0599L2.54986 84.721L0.5625 84.244C0.944501 82.5086 1.63097 80.9228 2.55005 79.5378Z" fill="#ECEAEC"/>
<path fill-rule="evenodd" clip-rule="evenodd" d="M14.751 73.62L22.424 46.0845L25.8785 44.4813L29.7427 46.0845C24.6661 60.6798 26.0832 70.8676 29.5103 80.5902C30.3296 82.9002 31.2597 85.187 32.2396 87.5027H26.72L14.751 73.62Z" fill="#FD4C5C"/>
<path fill-rule="evenodd" clip-rule="evenodd" d="M38.5115 15.2113L47.5133 13.2231C48.4267 13.3093 51.0399 15.5849 51.0399 17.0099L49.1244 27.1116C48.3272 27.3587 47.4802 27.4966 46.6054 27.4966C41.8112 27.4966 37.9248 23.4571 37.9248 18.4808C37.9248 17.3259 38.1295 16.2225 38.5115 15.2113Z" fill="#FFECE4"/>
<path fill-rule="evenodd" clip-rule="evenodd" d="M35.6055 15.2107C35.6055 8.78656 40.5104 3.5863 46.5669 3.5863C52.6234 3.5863 57.5284 8.78656 57.5284 15.2107C57.5284 19.4513 55.8675 23.2208 52.8558 25.4101C51.7819 26.1974 50.5306 26.7778 49.1245 27.111V17.0092C49.1245 15.5841 48.4271 15.2969 47.5135 15.2105H38.5119H35.6055V15.2107Z" fill="#FD4C5C"/>
<path fill-rule="evenodd" clip-rule="evenodd" d="M40.8311 5.30432C42.4975 4.21252 44.4628 3.5863 46.5664 3.5863C52.6229 3.5863 57.5279 8.78656 57.5279 15.2107C57.5279 19.4513 55.867 23.2208 52.8553 25.4101C52.0913 25.9675 51.2443 26.4215 50.3142 26.7548C52.5396 24.416 53.7465 21.0604 53.7465 17.3597C53.7465 10.6483 48.6146 5.2066 42.2868 5.2066C41.7943 5.2066 41.3071 5.23531 40.8311 5.30432Z" fill="#FD4C5C"/>
<path fill-rule="evenodd" clip-rule="evenodd" d="M40.0605 73.9247H48.3536V79.3434C48.3536 80.5042 47.7447 80.5903 46.8478 80.5903H34.9453C34.707 75.1543 37.8792 73.9247 40.0605 73.9247Z" fill="#6F6571"/>
<path fill-rule="evenodd" clip-rule="evenodd" d="M29.5103 80.5901C26.0835 70.8677 24.6662 60.6798 29.7427 46.0845H26.8971C26.8861 46.0845 26.8749 46.0845 26.8639 46.0845H25.8398C20.7633 60.6798 22.1749 70.8675 25.6072 80.5901C26.4211 82.9001 27.3512 85.187 28.3366 87.5027H30.3296H32.2396C31.2597 85.187 30.3296 82.8999 29.5103 80.5901Z" fill="#FD4C5C"/>
<path fill-rule="evenodd" clip-rule="evenodd" d="M26.716 87.4969L14.7691 73.6429C13.5346 73.5164 12.311 73.5682 11.1318 73.7923L22.6137 87.106C22.6027 87.8817 22.5306 88.6689 22.3867 89.4562L22.968 89.594L25.941 90.3008C26.2068 90.3639 26.3673 90.4676 26.4227 90.2147C26.6108 89.3069 26.7048 88.399 26.716 87.4969Z" fill="#DAD8DB"/>
<path fill-rule="evenodd" clip-rule="evenodd" d="M82.5297 66.6732H48.3555V69.7933H76.4346C78.7209 69.7933 79.806 70.8161 80.6974 72.8906C81.4669 74.6892 81.4836 75.2753 81.8323 77.4473C83.1443 79.0275 84.1519 80.9008 84.7554 82.9635C86.1448 74.643 84.5338 70.2933 82.5297 66.6732Z" fill="#FFC269"/>
<path fill-rule="evenodd" clip-rule="evenodd" d="M81.8334 77.4469C79.1761 74.2462 75.2621 72.2352 70.8942 72.2352C69.798 72.2352 68.735 72.3617 67.7109 72.5972C74.2491 74.1314 78.822 80.1189 79.0212 87.02C79.0322 87.3993 78.8661 87.4854 78.6005 87.5027H82.1159H84.5463C85.0445 87.5027 85.41 87.5717 85.3933 87.02C85.3547 85.6066 85.1332 84.2446 84.7567 82.9633C84.7457 82.923 84.7346 82.8886 84.7236 82.8542C84.7236 82.8542 84.7236 82.8542 84.7236 82.8485C84.1144 80.8314 83.1235 78.9984 81.8334 77.4469Z" fill="#FD4C5C"/>
<path fill-rule="evenodd" clip-rule="evenodd" d="M22.3853 89.4563L3.97205 85.0605C3.76731 85.9626 3.69527 86.8706 3.72844 87.7555L18.3436 91.2435L18.9194 91.3813C18.3768 93.8522 16.9984 95.9034 15.1659 97.2884C18.9027 96.6046 22.0639 93.674 22.9663 89.5943L22.3853 89.4563Z" fill="#5D5360"/>
<path fill-rule="evenodd" clip-rule="evenodd" d="M78.5997 87.503H60.0371C60.098 88.7096 60.3361 89.8704 60.7181 90.9563H73.6504H77.1657C77.0274 93.657 76.0309 96.1106 74.4586 98.0241C78.7269 96.5703 81.8658 92.4388 82.1149 87.5028H78.5997V87.503Z" fill="#5D5360"/>
<path fill-rule="evenodd" clip-rule="evenodd" d="M84.9203 64.1906V58.4962H77.4189V64.1906C77.4189 65.5582 76.3394 66.6728 75.0273 66.6728H82.5288C83.8409 66.673 84.9203 65.5582 84.9203 64.1906Z" fill="#5D5360"/>
<path fill-rule="evenodd" clip-rule="evenodd" d="M37.9688 17.5154H45.365C46.2784 17.6015 46.976 17.8947 46.976 19.3197V27.4849C47.7178 27.4505 48.4375 27.3241 49.124 27.1113V17.0097C49.124 15.5846 48.4265 15.2974 47.5129 15.2111H38.5113C38.24 15.9352 38.0518 16.7108 37.9688 17.5154Z" fill="#FFDDCE"/>
<path fill-rule="evenodd" clip-rule="evenodd" d="M20.8223 37.4142L31.1803 40.9653C31.6897 41.4363 31.1139 46.2402 30.7706 46.0851H22.4221H18.7295V38.1784C18.7295 36.6213 19.5102 36.9659 20.8223 37.4142Z" fill="#FD4C5C"/>
<path fill-rule="evenodd" clip-rule="evenodd" d="M36.0106 46.0836H35.1414H30.7735C27.9611 46.0836 27.878 41.2453 31.1832 40.9638L36.0106 40.5615L37.306 43.4059L36.0106 46.0836Z" fill="#FFECE4"/>
<path fill-rule="evenodd" clip-rule="evenodd" d="M45.3714 36.1154L47.1041 34.5696C51.4443 30.691 56.9307 37.2359 51.1289 41.1432L46.2461 44.43L43.788 46.0849H36.0098V40.5628L40.8427 40.1548L45.3714 36.1154Z" fill="#FD4C5C"/>
<path fill-rule="evenodd" clip-rule="evenodd" d="M36.0081 46.0843V43.4066H34.9728H34.4138H33.5391H29.1712C29.0051 43.4066 28.85 43.3952 28.7006 43.3606C28.54 44.6936 29.2654 46.0843 30.7712 46.0843H35.1391H36.0081Z" fill="#FFDDCE"/>
<path fill-rule="evenodd" clip-rule="evenodd" d="M51.1289 41.1435C54.6387 38.7761 54.0186 35.4492 52.0203 34.0471C52.1809 35.4836 51.5221 37.1328 49.529 38.4717L45.7257 41.0287L44.6517 41.7585L42.1936 43.4077H36.0098V46.0854H43.788L46.2461 44.4305L51.1289 41.1435Z" fill="#FD4C5C"/>
<path fill-rule="evenodd" clip-rule="evenodd" d="M31.1841 40.9644L27.0154 39.5393C25.6203 41.0908 24.9449 44.1132 25.8418 46.0842H29.7446H30.7744C29.2686 46.0842 28.5435 44.6936 28.7038 43.3605C28.8477 42.2056 29.6506 41.0965 31.1841 40.9644Z" fill="#FFC269"/>
</g>
<defs>
<clipPath id="clip0_12_302">
<rect width="97.0644" height="100.667" fill="white" transform="translate(0.5625 0.75)"/>
</clipPath>
</defs>
</svg>
