<svg width="80" height="80" viewBox="0 0 80 80" fill="none" xmlns="http://www.w3.org/2000/svg">
<path d="M79.6484 73C79.6484 71.187 78.9282 69.4482 77.6462 68.1663C76.3643 66.8843 74.6255 66.1641 72.8125 66.1641H52.3047V7.36235C52.3047 6.4663 52.1282 5.57902 51.7853 4.75117C51.4424 3.92332 50.9398 3.17111 50.3062 2.53751C49.6726 1.9039 48.9204 1.4013 48.0926 1.05841C47.2647 0.715514 46.3775 0.53904 45.4814 0.539063H7.1875C5.3745 0.539063 3.63575 1.25928 2.35376 2.54126C1.07178 3.82325 0.351563 5.562 0.351562 7.375V22.4141H14.0234V73C14.0234 74.813 14.7437 76.5518 16.0256 77.8337C17.3076 79.1157 19.0464 79.8359 20.8594 79.8359H50.8505C54.674 79.8359 57.7734 76.8233 57.7734 73H79.6484Z" fill="#EDEDED"/>
<path d="M34.5312 66.1641C32.7182 66.1641 30.9795 66.8843 29.6975 68.1663C28.4155 69.4482 27.6953 71.187 27.6953 73C27.6953 73.8977 27.5185 74.7866 27.175 75.616C26.8314 76.4454 26.3279 77.199 25.6931 77.8337C25.0583 78.4685 24.3047 78.972 23.4754 79.3156C22.646 79.6591 21.7571 79.8359 20.8594 79.8359H50.8505C54.674 79.8359 57.7734 76.8233 57.7734 73V66.1641H34.5312Z" fill="#E6E6E6"/>
<path d="M72.8125 66.1641C74.6255 66.1641 76.3643 66.8843 77.6462 68.1663C78.9282 69.4482 79.6484 71.187 79.6484 73H41.3672C41.3672 71.187 40.647 69.4482 39.365 68.1663C38.083 66.8843 36.3443 66.1641 34.5312 66.1641H72.8125Z" fill="#EDEDED"/>
<path d="M7.1875 0.539062C9.0005 0.539062 10.7393 1.25928 12.0212 2.54126C13.3032 3.82325 14.0234 5.562 14.0234 7.375V22.4141H0.351562V7.375C0.351562 5.562 1.07178 3.82325 2.35376 2.54126C3.63575 1.25928 5.3745 0.539063 7.1875 0.539062Z" fill="#E6E6E6"/>
<path d="M19.4922 26.5156H24.9609V31.9844H19.4922V26.5156Z" fill="#666666"/>
<path d="M19.4922 41.5547H24.9609V47.0234H19.4922V41.5547Z" fill="#666666"/>
<path d="M19.4922 56.5938H24.9609V62.0625H19.4922V56.5938Z" fill="#666666"/>
<path d="M46.836 7.36235V66.1641H52.3047V7.36235C52.3048 6.4663 52.1283 5.57902 51.7854 4.75117C51.4425 3.92332 50.9399 3.17111 50.3063 2.53751C49.6727 1.9039 48.9205 1.4013 48.0926 1.05841C47.2648 0.715514 46.3775 0.53904 45.4814 0.539063H40.0127C40.9087 0.53904 41.796 0.715514 42.6239 1.05841C43.4517 1.4013 44.2039 1.9039 44.8375 2.53751C45.4711 3.17111 45.9737 3.92332 46.3166 4.75117C46.6595 5.57902 46.836 6.4663 46.836 7.36235Z" fill="#E6E6E6"/>
<path d="M72.8125 66.1641H67.3438C69.1568 66.1641 70.8955 66.8843 72.1775 68.1663C73.4595 69.4482 74.1797 71.187 74.1797 73H79.6484C79.6484 71.187 78.9282 69.4482 77.6462 68.1663C76.3643 66.8843 74.6255 66.1641 72.8125 66.1641Z" fill="#E6E6E6"/>
<path d="M72.8021 8.74219H34.5417C32.2707 8.74219 30.4297 10.5832 30.4297 12.8542V34.7083C30.4297 36.9793 32.2707 38.8203 34.5417 38.8203H72.8021C75.0731 38.8203 76.9141 36.9793 76.9141 34.7083V12.8542C76.9141 10.5832 75.0731 8.74219 72.8021 8.74219Z" fill="#FD4C5C"/>
<path d="M72.8021 8.74219H71.4453V29.2396C71.4453 29.7796 71.339 30.3143 71.1324 30.8132C70.9257 31.3121 70.6228 31.7654 70.241 32.1472C69.8592 32.5291 69.4058 32.832 68.9069 33.0386C68.408 33.2452 67.8733 33.3516 67.3333 33.3516H30.4297V34.7083C30.4297 35.2483 30.536 35.783 30.7426 36.2819C30.9493 36.7808 31.2522 37.2342 31.634 37.616C32.0158 37.9978 32.4692 38.3007 32.9681 38.5074C33.467 38.714 34.0017 38.8203 34.5417 38.8203H72.8021C73.3421 38.8203 73.8768 38.714 74.3757 38.5074C74.8746 38.3007 75.3279 37.9978 75.7097 37.616C76.0916 37.2342 76.3945 36.7808 76.6011 36.2819C76.8077 35.783 76.9141 35.2483 76.9141 34.7083V12.8542C76.9141 12.3142 76.8077 11.7795 76.6011 11.2806C76.3945 10.7817 76.0916 10.3283 75.7097 9.94651C75.3279 9.56467 74.8746 9.26179 74.3757 9.05515C73.8768 8.84851 73.3421 8.74217 72.8021 8.74219Z" fill="#FD4C5C"/>
<path d="M30.4297 14.2109H76.9141V19.6797H30.4297V14.2109Z" fill="#FD4C5C"/>
<path d="M69.0955 26.5156H64.2249C62.9271 26.5156 61.875 27.5677 61.875 28.8655V31.0017C61.875 32.2995 62.9271 33.3516 64.2249 33.3516H69.0955C70.3932 33.3516 71.4453 32.2995 71.4453 31.0017V28.8655C71.4453 27.5677 70.3932 26.5156 69.0955 26.5156Z" fill="#FAB645"/>
<path d="M29.0625 57.9609H48.2031V60.6953H29.0625V57.9609Z" fill="#B3B3B3"/>
<path d="M29.0625 42.9219H48.2031V45.6562H29.0625V42.9219Z" fill="#B3B3B3"/>
</svg>
