<svg width="1277" height="41" viewBox="0 0 1277 41" fill="none" xmlns="http://www.w3.org/2000/svg">
<path d="M37.5575 29.0667C37.3521 28.5673 37.1596 28.0424 36.9542 27.5942L36.0044 25.456L35.9659 25.4176C33.1421 19.2717 30.1258 13.0234 26.9297 6.87753L26.8014 6.62145C26.4805 6.01966 26.1596 5.35386 25.8259 4.73927C25.4152 4.00945 25.0173 3.22841 24.3626 2.48579C23.7246 1.70876 22.9215 1.08272 22.0115 0.65285C21.1014 0.22298 20.107 0 19.1001 0C18.0932 0 17.0988 0.22298 16.1887 0.65285C15.2787 1.08272 14.4756 1.70876 13.8376 2.48579C13.2343 3.22841 12.785 4.00945 12.3743 4.73927C12.0534 5.40508 11.7325 6.05808 11.3988 6.65986L11.2705 6.91594C8.12577 13.0618 5.05809 19.3101 2.23429 25.456L2.15727 25.5328C1.87489 26.1986 1.54117 26.89 1.22028 27.6327C1.01491 28.0808 0.809547 28.5673 0.60418 29.1051C0.0497292 30.5133 -0.127324 32.0412 0.0904685 33.5384C0.308261 35.0356 0.913383 36.4504 1.8462 37.6433C2.77901 38.8361 4.00732 39.766 5.41007 40.3411C6.81282 40.9162 8.34159 41.1168 9.84572 40.9231C11.2877 40.7337 12.6763 40.2546 13.9274 39.5147C15.596 38.58 17.2004 37.2228 18.9974 35.2638C20.7944 37.2228 22.4373 38.58 24.0674 39.5275C25.635 40.4453 27.4102 40.9519 29.2273 40.9999C31.3315 41.0086 33.3678 40.2577 34.9602 38.8856C36.5527 37.5136 37.5938 35.6132 37.8912 33.5353C38.235 32.042 38.1187 30.48 37.5575 29.0539V29.0667ZM19.1258 31.1921C16.9181 28.3753 15.4805 25.7889 14.9927 23.5738C14.7907 22.753 14.7471 21.9013 14.8644 21.0642C14.9542 20.4113 15.1981 19.8351 15.5318 19.3485C16.302 18.2346 17.6497 17.5432 19.1258 17.5432C19.8268 17.5218 20.5221 17.6744 21.1494 17.9873C21.7767 18.3001 22.3162 18.7635 22.7197 19.3357C23.0534 19.8479 23.2973 20.4113 23.3743 21.0642C23.5027 21.8069 23.4513 22.6647 23.246 23.5738C22.7582 25.7505 21.3206 28.3625 19.1258 31.1921ZM35.4782 33.0871C35.3323 34.1421 34.9119 35.1405 34.2588 35.983C33.6057 36.8254 32.7428 37.4824 31.7559 37.8886C30.7804 38.2983 29.7022 38.4135 28.6497 38.2983C27.6229 38.1703 26.596 37.8374 25.5435 37.2228C23.796 36.1453 22.2246 34.8067 20.8842 33.2536C23.5797 29.9246 25.2098 26.89 25.8259 24.1884C26.1211 22.908 26.1596 21.7557 26.0313 20.6929C25.871 19.6856 25.4944 18.7248 24.9274 17.8761C24.28 16.9558 23.4158 16.2083 22.4109 15.6993C21.406 15.1902 20.2911 14.9353 19.1643 14.9568C16.7897 14.9568 14.6719 16.0579 13.3883 17.8633C12.8105 18.7098 12.4371 19.6783 12.2973 20.6929C12.1304 21.7685 12.1689 22.9592 12.5027 24.1884C13.1188 26.89 14.7874 29.963 17.4443 33.2792C16.1267 34.8619 14.5517 36.2124 12.785 37.274C11.7197 37.8886 10.7057 38.2087 9.67886 38.3367C8.08198 38.5408 6.4689 38.1078 5.19024 37.132C3.91159 36.1562 3.07071 34.7164 2.85039 33.1255C2.72203 32.1012 2.81188 31.0769 3.22262 29.9246C3.35097 29.5148 3.5435 29.1051 3.74887 28.6186C4.03125 27.9527 4.36497 27.2613 4.68586 26.5699L4.7372 26.4803C7.50967 20.3728 10.5388 14.1373 13.6835 8.02988L13.8119 7.7738C14.1328 7.15921 14.4537 6.50621 14.7874 5.89162C15.1211 5.23863 15.4805 4.61123 15.9426 4.09908C16.3425 3.6228 16.8423 3.23977 17.4067 2.97697C17.9711 2.71416 18.5864 2.57796 19.2092 2.57796C19.832 2.57796 20.4473 2.71416 21.0117 2.97697C21.5761 3.23977 22.0759 3.6228 22.4758 4.09908C22.9251 4.61123 23.2973 5.23863 23.631 5.89162C23.9519 6.50621 24.2728 7.17202 24.6065 7.7738L24.7349 8.02988C27.8667 14.1373 30.8959 20.3728 33.7197 26.4803L33.7582 26.5187C34.0919 27.1845 34.3743 27.9271 34.6952 28.5673C34.9006 29.0667 35.1059 29.4636 35.2343 29.8861C35.4782 31.0385 35.6065 32.0628 35.4782 33.0871ZM53.3451 30.9105C52.3779 30.9246 51.42 30.7213 50.5423 30.3156C49.6646 29.91 48.8897 29.3125 48.2751 28.5673C46.8941 26.9796 46.1612 24.9324 46.2215 22.8312C46.2003 20.6842 46.9569 18.6019 48.3521 16.967C48.9975 16.2124 49.8009 15.608 50.7057 15.1966C51.6105 14.7851 52.5947 14.5765 53.589 14.5855C54.5246 14.5599 55.4514 14.7722 56.2822 15.2022C57.1129 15.6322 57.8204 16.266 58.3381 17.0438L58.4665 15.0336H62.2145V30.5007H58.4537L58.3253 28.2472C57.7916 29.0778 57.0539 29.7584 56.1822 30.2245C55.3106 30.6907 54.334 30.9268 53.3451 30.9105ZM54.3206 27.2229C55.0651 27.2229 55.7197 27.0181 56.3358 26.6468C56.9006 26.237 57.3626 25.6993 57.722 25.0463C58.0429 24.3933 58.2098 23.6122 58.2098 22.7416C58.2598 21.9854 58.1123 21.2291 57.7815 20.5469C57.4508 19.8646 56.9482 19.2796 56.323 18.8492C55.7222 18.4758 55.0285 18.2778 54.3206 18.2778C53.6128 18.2778 52.9191 18.4758 52.3183 18.8492C51.7535 19.2589 51.2915 19.7967 50.9321 20.4497C50.5926 21.1698 50.4257 21.9588 50.4443 22.7544C50.3943 23.5106 50.5418 24.2668 50.8726 24.9491C51.2033 25.6313 51.7059 26.2163 52.3311 26.6468C52.9344 27.0181 53.589 27.2229 54.3206 27.2229ZM68.6322 10.8595C68.6322 11.3077 68.5552 11.7174 68.3498 12.0503C68.1444 12.3704 67.8621 12.6649 67.4898 12.8698C67.1176 13.0746 66.7197 13.1514 66.309 13.1514C65.8982 13.1514 65.4875 13.0746 65.1153 12.8698C64.7632 12.6742 64.4672 12.3922 64.2553 12.0503C64.0565 11.6856 63.959 11.2745 63.9729 10.8595C63.9729 10.3986 64.0628 9.98887 64.2553 9.66878C64.4607 9.28466 64.7559 9.05419 65.1153 8.84933C65.4875 8.64446 65.8854 8.55484 66.309 8.55484C66.7175 8.54545 67.1216 8.64197 67.4815 8.83498C67.8415 9.02799 68.1451 9.31087 68.3626 9.65597C68.5494 10.0293 68.642 10.4424 68.6322 10.8595ZM64.2681 30.4495V15.008H68.3498V30.4751H64.2553L64.2681 30.4495ZM79.26 19.054V19.1053C79.0674 19.0156 78.8107 18.9772 78.6182 18.9388C78.3615 18.8876 78.1561 18.8876 77.9122 18.8876C76.7699 18.8876 75.9099 19.2205 75.3451 19.9119C74.729 20.6161 74.4467 21.602 74.4467 22.8696V30.4623H70.3521V14.9952H74.1129L74.2413 17.3383C74.652 16.5189 75.1398 15.9043 75.8329 15.4433C76.5223 14.9955 77.334 14.7718 78.1561 14.8031C78.4513 14.8031 78.7337 14.8287 78.9776 14.88C79.1059 14.9184 79.183 14.9184 79.26 14.9568V19.054ZM80.9029 30.4495V8.65727H84.9846V16.9798C85.5622 16.2372 86.2168 15.661 87.0383 15.2129C88.3387 14.5768 89.8161 14.3964 91.232 14.7007C92.6479 15.005 93.9197 15.7763 94.8422 16.8902C96.2263 18.4812 96.9594 20.5335 96.8959 22.6391C96.917 24.7861 96.1604 26.8685 94.7652 28.5033C94.1199 29.258 93.3165 29.8623 92.4117 30.2737C91.5069 30.6852 90.5227 30.8938 89.5284 30.8848C88.5927 30.9104 87.666 30.6982 86.8352 30.2681C86.0044 29.8381 85.2969 29.2043 84.7792 28.4265L84.6509 30.4367L80.9029 30.4751V30.4495ZM88.7967 27.2229C89.5284 27.2229 90.183 27.0181 90.7991 26.6468C91.3638 26.237 91.8259 25.6993 92.1853 25.0463C92.519 24.3933 92.673 23.6122 92.673 22.7416C92.673 21.8837 92.519 21.1027 92.1853 20.4497C91.8482 19.82 91.3747 19.2732 90.7991 18.8492C90.1983 18.4758 89.5046 18.2778 88.7967 18.2778C88.0889 18.2778 87.3952 18.4758 86.7944 18.8492C86.2168 19.2589 85.7676 19.7967 85.3953 20.4497C85.0559 21.1698 84.8889 21.9588 84.9076 22.7544C84.8575 23.5106 85.0051 24.2668 85.3358 24.9491C85.6666 25.6313 86.1691 26.2163 86.7944 26.6468C87.3977 27.0181 88.0523 27.2229 88.7967 27.2229ZM98.4362 30.4623V14.9952H102.197L102.325 17.0054C102.798 16.2349 103.468 15.6042 104.267 15.1788C105.066 14.7533 105.964 14.5485 106.869 14.5855C107.904 14.5676 108.921 14.8545 109.793 15.4102C110.665 15.9659 111.353 16.7657 111.772 17.7096C112.221 18.6827 112.465 19.8863 112.465 21.2307V30.5007H108.371V21.7685C108.371 20.6929 108.127 19.8479 107.639 19.2205C107.151 18.6059 106.484 18.273 105.637 18.273C105.021 18.273 104.482 18.401 104.007 18.6827C103.558 18.9772 103.185 19.3485 102.903 19.8735C102.617 20.4041 102.476 21 102.492 21.602V30.4623H98.4362ZM114.506 30.4623V8.64446H118.601V16.967C119.155 16.2202 119.877 15.6127 120.708 15.1926C121.539 14.7726 122.457 14.5515 123.388 14.5471C124.356 14.5329 125.314 14.7362 126.191 15.1419C127.069 15.5475 127.844 16.145 128.458 16.8902C129.833 18.4811 130.561 20.5272 130.499 22.6263C130.521 24.7735 129.765 26.8562 128.368 28.4905C127.723 29.2451 126.92 29.8495 126.015 30.2609C125.11 30.6724 124.126 30.881 123.132 30.872C122.196 30.8976 121.269 30.6854 120.438 30.2553C119.608 29.8253 118.9 29.1915 118.382 28.4137L118.267 30.4239L114.506 30.4623ZM122.439 27.2229C123.183 27.2229 123.838 27.0181 124.441 26.6468C125.018 26.237 125.468 25.6993 125.84 25.0463C126.161 24.3933 126.328 23.6122 126.328 22.7416C126.378 21.9854 126.23 21.2291 125.899 20.5469C125.569 19.8646 125.066 19.2796 124.441 18.8492C123.84 18.4758 123.146 18.2778 122.439 18.2778C121.731 18.2778 121.037 18.4758 120.436 18.8492C119.871 19.2589 119.409 19.7967 119.05 20.4497C118.692 21.1634 118.524 21.9571 118.562 22.7544C118.512 23.5106 118.66 24.2668 118.99 24.9491C119.321 25.6313 119.824 26.2163 120.449 26.6468C121.052 27.0181 121.668 27.2229 122.439 27.2229Z" fill="#FF385C"/>
<path d="M233.685 8.80615V18.6684H224.746V8.80615H220.503V32.3484H224.746V22.8063H233.685V32.3484H237.928V8.80615H233.685Z" fill="#33475B"/>
<path d="M251.51 24.7383C251.51 25.6818 251.14 26.5866 250.481 27.2538C249.823 27.9209 248.93 28.2957 247.999 28.2957C247.068 28.2957 246.175 27.9209 245.517 27.2538C244.858 26.5866 244.488 25.6818 244.488 24.7383V14.6548H240.463V24.7383C240.463 26.7616 241.256 28.7021 242.668 30.1328C244.08 31.5635 245.995 32.3673 247.992 32.3673C249.988 32.3673 251.903 31.5635 253.315 30.1328C254.727 28.7021 255.52 26.7616 255.52 24.7383V14.6548H251.51V24.7383Z" fill="#33475B"/>
<path d="M281.333 15.6935C281.333 13.6267 282.683 12.9714 284.161 12.9714C285.352 12.9714 286.926 13.89 287.955 15.0046L290.592 11.8569C289.276 10.0534 286.606 8.80615 284.421 8.80615C280.055 8.80615 276.896 11.3976 276.896 15.6935C276.896 23.6638 286.51 21.1356 286.51 25.5958C286.51 26.9716 285.192 28.1873 283.683 28.1873C281.302 28.1873 280.531 27.0074 279.437 25.7602L276.512 28.8425C278.383 31.1706 280.691 32.3526 283.456 32.3526C287.604 32.3526 290.941 29.7295 290.941 25.6295C290.941 16.7807 281.327 19.5301 281.327 15.6935" fill="#33475B"/>
<path d="M340.809 28.5874C338.43 28.5874 337.754 27.5445 337.754 25.9475V18.8789H341.451V15.2973H337.754V10.5715L333.673 12.4277V26.8261C333.673 30.5089 336.181 32.365 339.619 32.365C340.159 32.375 340.698 32.3312 341.229 32.2344L342.225 28.52C341.776 28.5516 341.26 28.5832 340.809 28.5832" fill="#33475B"/>
<path d="M266.831 14.7733C264.837 14.7733 263.446 15.359 262.101 16.6968V8.94775H258.069V23.3103C258.069 28.6871 261.905 32.3699 266.215 32.3699C270.998 32.3699 275.204 28.6217 275.204 23.5737C275.204 18.5888 271.332 14.7754 266.831 14.7754V14.7733ZM266.806 28.2594C265.901 28.2594 265.017 27.9875 264.265 27.4782C263.512 26.9689 262.926 26.245 262.58 25.398C262.234 24.5511 262.143 23.6191 262.32 22.72C262.496 21.8208 262.932 20.9949 263.572 20.3467C264.211 19.6985 265.026 19.257 265.914 19.0782C266.801 18.8993 267.721 18.9911 268.556 19.3419C269.392 19.6928 270.107 20.2869 270.609 21.0491C271.112 21.8113 271.38 22.7075 271.38 23.6242C271.38 24.8536 270.898 26.0325 270.04 26.9018C269.183 27.771 268.019 28.2594 266.806 28.2594Z" fill="#33475B"/>
<path d="M310.606 23.3587C310.606 18.3022 306.408 14.5625 301.618 14.5625C297.307 14.5625 293.471 18.2453 293.471 23.6221V37.993H297.503V30.2334C298.846 31.5692 300.239 32.157 302.231 32.157C306.732 32.157 310.604 28.3457 310.604 23.3587H310.606ZM306.788 23.3081C306.788 24.2249 306.52 25.121 306.018 25.8833C305.515 26.6455 304.801 27.2396 303.965 27.5904C303.129 27.9412 302.209 28.033 301.322 27.8542C300.435 27.6753 299.62 27.2339 298.98 26.5857C298.34 25.9374 297.905 25.1115 297.728 24.2124C297.552 23.3133 297.642 22.3813 297.988 21.5343C298.335 20.6874 298.921 19.9635 299.673 19.4542C300.425 18.9449 301.31 18.673 302.214 18.673C303.427 18.673 304.591 19.1614 305.449 20.0306C306.307 20.8999 306.788 22.0788 306.788 23.3081Z" fill="#33475B"/>
<path d="M323.629 14.3642V10.26C324.164 10.0066 324.618 9.60433 324.936 9.10004C325.254 8.59576 325.425 8.0102 325.428 7.41154V7.31673C325.428 6.47856 325.099 5.67473 324.514 5.08205C323.929 4.48938 323.136 4.15642 322.309 4.15642H322.215C321.388 4.15642 320.595 4.48938 320.01 5.08205C319.425 5.67473 319.097 6.47856 319.097 7.31673V7.41154C319.099 8.0102 319.27 8.59576 319.588 9.10004C319.907 9.60433 320.36 10.0066 320.895 10.26V14.3642C319.357 14.6027 317.908 15.2489 316.695 16.2372L305.588 7.47053C305.667 7.18144 305.709 6.88337 305.713 6.58354C305.714 5.87923 305.509 5.19036 305.124 4.60409C304.739 4.01781 304.191 3.56045 303.549 3.28986C302.908 3.01927 302.201 2.94761 301.519 3.08394C300.837 3.22028 300.211 3.55847 299.718 4.05576C299.226 4.55305 298.891 5.18708 298.754 5.87767C298.617 6.56825 298.686 7.28437 298.951 7.93543C299.216 8.58648 299.666 9.14324 300.244 9.53527C300.821 9.92731 301.5 10.137 302.195 10.1378C302.803 10.1351 303.399 9.97091 303.925 9.66168L314.863 18.2851C313.881 19.7894 313.368 21.5588 313.392 23.3627C313.416 25.1667 313.976 26.9214 314.999 28.3981L311.672 31.7691C311.403 31.6821 311.123 31.6359 310.84 31.6322C310.27 31.6326 309.712 31.8044 309.238 32.1259C308.764 32.4474 308.394 32.9041 308.176 33.4384C307.958 33.9726 307.901 34.5605 308.012 35.1275C308.123 35.6946 308.398 36.2155 308.802 36.6243C309.205 37.0332 309.719 37.3116 310.279 37.4246C310.838 37.5375 311.419 37.4797 311.946 37.2586C312.473 37.0376 312.924 36.6631 313.241 36.1825C313.558 35.7019 313.728 35.1368 313.728 34.5586C313.725 34.2725 313.679 33.9884 313.593 33.7159L316.884 30.3807C317.958 31.2176 319.206 31.7944 320.533 32.0671C321.86 32.3398 323.231 32.3011 324.541 31.9539C325.852 31.6067 327.066 30.9603 328.091 30.0641C329.117 29.1679 329.926 28.0458 330.458 26.7836C330.99 25.5215 331.229 24.1528 331.158 22.7824C331.087 21.4121 330.707 20.0764 330.048 18.8776C329.389 17.6789 328.468 16.6489 327.355 15.8666C326.243 15.0843 324.968 14.5704 323.629 14.3642ZM322.265 27.8609C321.365 27.86 320.485 27.5888 319.737 27.0813C318.989 26.5739 318.406 25.8532 318.062 25.0101C317.718 24.167 317.628 23.2395 317.804 22.3448C317.98 21.4501 318.414 20.6284 319.05 19.9834C319.687 19.3385 320.498 18.8993 321.381 18.7214C322.264 18.5434 323.18 18.6347 324.011 18.9838C324.843 19.3328 325.554 19.9239 326.055 20.6823C326.555 21.4407 326.822 22.3324 326.823 23.2447C326.823 24.4684 326.343 25.642 325.489 26.5073C324.635 27.3726 323.477 27.8588 322.269 27.8588" fill="#FF7A59"/>
<path d="M483.863 22.2697C483.863 27.9316 479.392 32.1038 473.906 32.1038C468.419 32.1038 463.948 27.9316 463.948 22.2697C463.948 16.5678 468.419 12.4355 473.906 12.4355C479.392 12.4355 483.863 16.5678 483.863 22.2697ZM479.504 22.2697C479.504 18.7315 476.913 16.3107 473.906 16.3107C470.898 16.3107 468.307 18.7315 468.307 22.2697C468.307 25.7724 470.898 28.2287 473.906 28.2287C476.913 28.2287 479.504 25.7679 479.504 22.2697Z" fill="#EA4335"/>
<path d="M505.343 22.2697C505.343 27.9316 500.872 32.1038 495.386 32.1038C489.9 32.1038 485.429 27.9316 485.429 22.2697C485.429 16.5723 489.9 12.4355 495.386 12.4355C500.872 12.4355 505.343 16.5678 505.343 22.2697ZM500.984 22.2697C500.984 18.7315 498.393 16.3107 495.386 16.3107C492.379 16.3107 489.788 18.7315 489.788 22.2697C489.788 25.7724 492.379 28.2287 495.386 28.2287C498.393 28.2287 500.984 25.7679 500.984 22.2697Z" fill="#FBBC05"/>
<path d="M525.929 13.0297V30.685C525.929 37.9476 521.606 40.9138 516.495 40.9138C511.685 40.9138 508.789 37.7259 507.697 35.1188L511.492 33.5537C512.168 35.1543 513.824 37.0431 516.491 37.0431C519.762 37.0431 521.789 35.0434 521.789 31.2791V29.8648H521.637C520.662 31.0574 518.782 32.0994 516.41 32.0994C511.447 32.0994 506.901 27.8164 506.901 22.3052C506.901 16.7541 511.447 12.4355 516.41 12.4355C518.778 12.4355 520.657 13.4775 521.637 14.6347H521.789V13.0341H525.929V13.0297ZM522.098 22.3052C522.098 18.8424 519.767 16.3107 516.8 16.3107C513.792 16.3107 511.273 18.8424 511.273 22.3052C511.273 25.7325 513.792 28.2287 516.8 28.2287C519.767 28.2287 522.098 25.7325 522.098 22.3052Z" fill="#4285F4"/>
<path d="M532.753 2.68115V31.5008H528.501V2.68115H532.753Z" fill="#34A853"/>
<path d="M549.32 25.5064L552.703 27.741C551.611 29.3416 548.98 32.0994 544.433 32.0994C538.795 32.0994 534.584 27.7809 534.584 22.2653C534.584 16.4171 538.831 12.4312 543.946 12.4312C549.096 12.4312 551.616 16.4925 552.439 18.6872L552.891 19.8045L539.623 25.2492C540.639 27.2223 542.218 28.2287 544.433 28.2287C546.653 28.2287 548.192 27.1469 549.32 25.5064ZM538.907 21.9682L547.776 18.3192C547.288 17.0911 545.821 16.2353 544.093 16.2353C541.878 16.2353 538.795 18.1729 538.907 21.9682Z" fill="#EA4335"/>
<path d="M447.856 19.7115V15.5393H462.047C462.186 16.2664 462.257 17.1266 462.257 18.0577C462.257 21.1879 461.393 25.0586 458.61 27.8165C455.903 30.6097 452.443 32.0995 447.861 32.0995C439.367 32.0995 432.225 25.2449 432.225 16.8295C432.225 8.4142 439.367 1.55957 447.861 1.55957C452.56 1.55957 455.907 3.38629 458.422 5.76723L455.451 8.71127C453.647 7.0353 451.204 5.73176 447.856 5.73176C441.654 5.73176 436.803 10.6843 436.803 16.8295C436.803 22.9748 441.654 27.9273 447.856 27.9273C451.879 27.9273 454.171 26.3267 455.638 24.8724C456.829 23.693 457.612 22.0082 457.921 19.7071L447.856 19.7115Z" fill="#4285F4"/>
<path d="M705.293 23.376L704.24 26.3709H704.152C703.976 25.6956 703.654 24.6679 703.127 23.4347L697.478 9.19404H691.947V31.891H695.605V17.8852C695.605 17.0044 695.605 16.0061 695.576 14.7729C695.547 14.1562 695.488 13.6865 695.459 13.3341H695.547C695.722 14.215 695.927 14.8609 696.074 15.272L702.864 31.8323H705.44L712.172 15.1252C712.318 14.7435 712.464 13.9801 712.611 13.3341H712.699C712.611 15.0077 712.552 16.5052 712.523 17.4154V31.8029H716.416V9.13531H711.089L705.293 23.376ZM720.104 15.5363H723.909V31.8029H720.104V15.5363ZM722.035 8.66552C721.392 8.66552 720.865 8.90042 720.426 9.31149C719.987 9.72256 719.752 10.2511 719.752 10.897C719.752 11.5136 719.987 12.0422 720.426 12.4532C720.865 12.8643 721.392 13.0698 722.035 13.0698C722.679 13.0698 723.235 12.8349 723.645 12.4532C724.084 12.0422 724.318 11.5136 724.318 10.897C724.318 10.2804 724.084 9.75192 723.645 9.31149C723.265 8.90042 722.709 8.66552 722.035 8.66552ZM737.402 15.3895C736.699 15.2426 735.968 15.1546 735.265 15.1546C733.538 15.1546 731.958 15.5363 730.641 16.2997C729.324 17.0631 728.27 18.1201 727.597 19.4414C726.894 20.7921 726.543 22.3483 726.543 24.1394C726.543 25.6956 726.894 27.0756 727.567 28.3382C728.241 29.5714 729.177 30.5697 730.436 31.245C731.636 31.9204 733.041 32.2727 734.621 32.2727C736.436 32.2727 737.987 31.891 739.217 31.1863L739.246 31.1569V27.6335L739.099 27.7509C738.543 28.162 737.899 28.5143 737.256 28.7199C736.582 28.9548 735.968 29.0722 735.441 29.0722C733.919 29.0722 732.719 28.6318 731.87 27.6628C730.992 26.7233 730.553 25.4313 730.553 23.8164C730.553 22.1428 730.992 20.8215 731.899 19.8525C732.807 18.8836 734.007 18.3844 735.47 18.3844C736.699 18.3844 737.958 18.7955 739.099 19.6176L739.246 19.7351V16.0061L739.217 15.9767C738.719 15.7712 738.163 15.5363 737.402 15.3895ZM749.958 15.272C749.022 15.272 748.144 15.5656 747.383 16.1822C746.739 16.7108 746.3 17.4742 745.919 18.3844H745.89V15.5363H742.085V31.8029H745.89V23.4934C745.89 22.084 746.183 20.9095 746.827 20.058C747.471 19.1772 748.29 18.7367 749.285 18.7367C749.636 18.7367 749.988 18.8248 750.427 18.8836C750.837 19.001 751.129 19.1185 751.334 19.2653L751.48 19.3827V15.5656L751.393 15.5363C751.129 15.3601 750.602 15.272 749.958 15.272ZM760.32 15.1839C757.656 15.1839 755.52 15.9767 754.027 17.5329C752.505 19.0891 751.773 21.2325 751.773 23.9338C751.773 26.459 752.534 28.5144 753.998 30.0118C755.461 31.4799 757.451 32.2433 759.939 32.2433C762.544 32.2433 764.622 31.4506 766.115 29.865C767.637 28.2795 768.369 26.1654 768.369 23.5521C768.369 20.9683 767.666 18.9129 766.232 17.4154C764.857 15.918 762.837 15.1839 760.32 15.1839ZM763.364 27.6922C762.661 28.6024 761.549 29.0429 760.173 29.0429C758.798 29.0429 757.686 28.6024 756.895 27.6335C756.105 26.7233 755.724 25.402 755.724 23.7283C755.724 21.9959 756.134 20.6746 756.895 19.7351C757.686 18.7955 758.769 18.3257 760.144 18.3257C761.491 18.3257 762.544 18.7661 763.305 19.6763C764.066 20.5866 764.476 21.9079 764.476 23.6402C764.417 25.402 764.096 26.782 763.364 27.6922ZM776.857 22.2896C775.657 21.7904 774.896 21.4087 774.545 21.0857C774.252 20.7921 774.106 20.381 774.106 19.8525C774.106 19.4121 774.281 18.9716 774.72 18.678C775.159 18.3844 775.657 18.2376 776.389 18.2376C777.033 18.2376 777.706 18.355 778.35 18.5312C778.994 18.7074 779.579 18.9716 780.047 19.324L780.194 19.4414V15.8593L780.106 15.8299C779.667 15.6537 779.081 15.4775 778.379 15.3307C777.677 15.2133 777.033 15.1546 776.506 15.1546C774.691 15.1546 773.198 15.595 772.028 16.5639C770.857 17.4742 770.301 18.7074 770.301 20.1461C770.301 20.9095 770.418 21.5849 770.681 22.1428C770.945 22.7006 771.325 23.2292 771.852 23.6696C772.379 24.0807 773.14 24.5505 774.193 24.9909C775.072 25.3726 775.745 25.6662 776.155 25.9011C776.564 26.136 776.828 26.4003 777.033 26.6058C777.179 26.8407 777.267 27.1343 777.267 27.516C777.267 28.6024 776.447 29.131 774.779 29.131C774.135 29.131 773.462 29.0135 772.671 28.7492C771.881 28.485 771.149 28.1033 770.535 27.6628L770.388 27.5454V31.2744L770.476 31.3038C771.032 31.568 771.706 31.7442 772.525 31.9497C773.345 32.0965 774.076 32.214 774.72 32.214C776.681 32.214 778.291 31.7736 779.433 30.8046C780.603 29.865 781.218 28.6612 781.218 27.105C781.218 26.0186 780.925 25.0496 780.281 24.3156C779.433 23.6109 778.379 22.8768 776.857 22.2896ZM791.258 15.1839C788.594 15.1839 786.457 15.9767 784.965 17.5329C783.472 19.0891 782.711 21.2325 782.711 23.9338C782.711 26.459 783.472 28.5144 784.935 30.0118C786.399 31.4799 788.389 32.2433 790.877 32.2433C793.482 32.2433 795.56 31.4506 797.053 29.865C798.575 28.2795 799.307 26.1654 799.307 23.5521C799.307 20.9683 798.604 18.9129 797.17 17.4154C795.794 15.918 793.775 15.1839 791.258 15.1839ZM794.272 27.6922C793.57 28.6024 792.458 29.0429 791.082 29.0429C789.677 29.0429 788.594 28.6024 787.804 27.6335C787.013 26.7233 786.633 25.402 786.633 23.7283C786.633 21.9959 787.043 20.6746 787.804 19.7351C788.594 18.7955 789.677 18.3257 791.053 18.3257C792.37 18.3257 793.453 18.7661 794.214 19.6763C794.975 20.5866 795.384 21.9079 795.384 23.6402C795.384 25.402 795.004 26.782 794.272 27.6922ZM819.649 18.678V15.5363H815.815V10.7209L815.697 10.7502L812.068 11.8366L811.98 11.866V15.5363H806.243V13.4809C806.243 12.5413 806.478 11.8073 806.887 11.3375C807.297 10.8677 807.912 10.6328 808.673 10.6328C809.2 10.6328 809.756 10.7502 810.37 11.0145L810.517 11.1026V7.78465L810.429 7.75529C809.902 7.57912 809.2 7.46167 808.292 7.46167C807.151 7.46167 806.156 7.72593 805.248 8.16636C804.341 8.66552 803.668 9.34085 803.17 10.2511C802.673 11.1319 802.409 12.1303 802.409 13.2754V15.5363H799.746V18.6487H802.409V31.8029H806.243V18.678H811.98V27.0462C811.98 30.4816 813.59 32.214 816.81 32.214C817.337 32.214 817.893 32.1259 818.419 32.0378C818.976 31.9204 819.385 31.7736 819.62 31.6561L819.649 31.6267V28.485L819.502 28.6024C819.268 28.7492 819.063 28.8667 818.712 28.9548C818.419 29.0429 818.156 29.0722 817.951 29.0722C817.19 29.0722 816.663 28.8961 816.283 28.4556C815.932 28.0446 815.756 27.3692 815.756 26.3709V18.678H819.649Z" fill="#737373"/>
<path d="M642.891 1.55957H660.833V19.5586H642.891V1.55957Z" fill="#F25022"/>
<path d="M662.706 1.55957H680.648V19.5586H662.706V1.55957Z" fill="#7FBA00"/>
<path d="M642.891 21.4377H660.833V39.4368H642.891V21.4377Z" fill="#00A4EF"/>
<path d="M662.706 21.4377H680.648V39.4368H662.706V21.4377Z" fill="#FFB900"/>
<path d="M966.89 15.0317V17.1783H966.955C967.723 16.029 968.999 14.6755 971.826 14.6755C974.026 14.6755 975.713 15.801 976.436 17.5012H976.501C977.119 16.6416 977.827 15.991 978.62 15.5303C979.559 14.9842 980.604 14.6708 981.92 14.6708C984.897 14.6708 987.534 16.6179 987.534 21.5284V30.8414H982.994V22.1791C982.994 19.6905 982.1 18.2516 980.242 18.2516C978.881 18.2516 977.892 19.1159 977.516 20.1797C977.385 20.5454 977.325 21.044 977.325 21.4619V30.8461H972.785V21.8276C972.785 19.7143 971.927 18.2468 970.094 18.2468C968.627 18.2468 967.708 19.3391 967.332 20.2747C967.171 20.6736 967.121 21.1343 967.121 21.5664V30.8414H962.576V15.0317H966.89ZM1010.96 15.0317V18.0141H1011.09C1011.92 15.7346 1013.9 14.6755 1015.64 14.6755C1016.08 14.6755 1016.32 14.7088 1016.67 14.7752V18.9164C1016.25 18.8595 1015.87 18.8025 1015.32 18.8025C1013.35 18.8025 1011.98 19.8853 1011.64 21.5807C1011.56 21.9321 1011.54 22.312 1011.54 22.749V30.8461H1006.88V15.0317H1010.96ZM1023 9.79346V14.7705H1026.93V18.7977H1023V24.7388C1023 26.6622 1023.51 27.593 1025.05 27.593C1025.77 27.593 1026.31 27.5075 1026.77 27.3983L1026.83 30.7369C1026.21 30.9554 1024.89 31.1928 1023.56 31.1928C1021.99 31.1928 1020.68 30.6752 1019.88 29.8726C1018.96 28.956 1018.54 27.4553 1018.54 25.3182V9.79346H1023ZM959.413 30.8414H954.893V9.79346H959.413V30.8414ZM947.361 25.1947C947.361 25.4844 947.336 25.7884 947.25 26.0496C946.899 27.1466 945.699 28.0727 944.202 28.0727C942.952 28.0727 941.958 27.4031 941.958 25.9831C941.958 23.8127 944.489 23.2096 947.366 23.2239V25.1947H947.361ZM951.875 21.4097C951.875 17.8242 950.258 14.6755 944.79 14.6755C941.983 14.6755 939.753 15.4211 938.538 16.086L939.427 18.9639C940.537 18.2991 942.309 17.7529 943.986 17.7529C946.763 17.7482 947.215 19.2394 947.215 20.1939V20.4219C941.164 20.4124 937.343 22.3928 937.343 26.4295C937.343 28.8943 939.286 31.2023 942.671 31.2023C944.755 31.2023 946.492 30.4187 947.537 29.1602H947.637C947.637 29.1602 948.33 31.8909 952.136 30.8461C951.936 29.7064 951.87 28.4953 951.87 27.0374V21.4097H951.875ZM914.64 9.79346C915.107 12.0208 916.433 18.489 916.433 18.489C916.99 21.1485 917.502 23.9362 917.889 26.1398H917.959C918.336 23.7985 918.929 21.5807 919.561 18.8357L921.796 9.79346H926.742L928.831 19.0684C929.379 21.6472 929.815 23.637 930.162 26.0353H930.227C930.604 23.6133 931.096 21.5427 931.633 18.8927L933.642 9.79346H938.387L932.507 30.8414C928.761 31.6155 927.325 30.1908 926.812 27.9302C926.3 25.6649 925.296 21.3575 925.296 21.3575C924.779 18.9972 924.377 17.335 924.096 14.913H924.026C923.624 17.3113 923.202 18.9924 922.579 21.3527L920.114 30.8461C916.287 31.568 914.962 30.4995 914.228 27.5978C913.596 25.114 909.649 9.79821 909.649 9.79821H914.64V9.79346ZM999.344 25.1947C999.344 25.4844 999.319 25.7884 999.234 26.0496C998.882 27.1466 997.682 28.0727 996.186 28.0727C994.935 28.0727 993.941 27.4031 993.941 25.9831C993.941 23.8127 996.472 23.2096 999.349 23.2239V25.1947H999.344ZM1003.86 21.4097C1003.86 17.8242 1002.24 14.6755 996.773 14.6755C993.966 14.6755 991.737 15.4211 990.521 16.086L991.41 18.9639C992.52 18.2991 994.293 17.7529 995.97 17.7529C998.742 17.7482 999.199 19.2394 999.199 20.1939V20.4219C993.153 20.4124 989.331 22.3928 989.331 26.4295C989.331 28.8943 991.28 31.2023 994.659 31.2023C996.738 31.2023 998.481 30.4187 999.52 29.1602H999.626C999.626 29.1602 1000.32 31.8909 1004.13 30.8461C1003.92 29.7064 1003.86 28.4953 1003.86 27.0374V21.4097Z" fill="#041E42"/>
<path d="M1045.25 23.5926C1045.7 24.3613 1045.67 25.2192 1045.19 25.611L1036.97 31.3188C1036.12 31.8098 1034.84 31.2147 1034.11 29.97C1033.38 28.7203 1033.51 27.3268 1034.37 26.8358L1043.47 22.6405C1044.04 22.4223 1044.81 22.824 1045.25 23.5926ZM1056.07 23.5926C1056.52 22.824 1057.29 22.4272 1057.86 22.6355L1066.96 26.8309C1067.82 27.3218 1067.94 28.7153 1067.22 29.965C1066.49 31.2097 1065.2 31.7998 1064.35 31.3139L1056.13 25.606C1055.66 25.2192 1055.63 24.3563 1056.07 23.5926ZM1050.66 26.6871C1051.56 26.6871 1052.29 27.1433 1052.39 27.7433L1053.28 37.6515C1053.28 38.6334 1052.12 39.4368 1050.66 39.4368C1049.21 39.4368 1048.05 38.6334 1048.05 37.6515L1048.93 27.7433C1049.03 27.1433 1049.77 26.6871 1050.66 26.6871ZM1056.13 15.3904L1064.35 9.67753C1065.2 9.18659 1066.49 9.77671 1067.22 11.0264C1067.94 12.2761 1067.82 13.6696 1066.96 14.1605L1057.86 18.3608C1057.29 18.5691 1056.52 18.1724 1056.07 17.4037C1055.63 16.6351 1055.66 15.7772 1056.13 15.3904ZM1043.47 18.3608L1034.37 14.1605C1033.52 13.6696 1033.39 12.2761 1034.11 11.0264C1034.84 9.77671 1036.12 9.18659 1036.97 9.67753L1045.19 15.3904C1045.67 15.7722 1045.7 16.6351 1045.25 17.4037C1044.81 18.1724 1044.04 18.5691 1043.47 18.3608ZM1048.93 13.253L1048.05 3.34483C1048.05 2.36294 1049.21 1.55957 1050.66 1.55957C1052.12 1.55957 1053.28 2.36294 1053.28 3.34483L1052.39 13.253C1052.29 13.8481 1051.56 14.3093 1050.66 14.3093C1049.77 14.3093 1049.03 13.8481 1048.93 13.253ZM1069.44 31.2791V31.0312H1069.67C1069.74 31.0312 1069.79 31.0808 1069.79 31.1552C1069.79 31.2246 1069.74 31.2791 1069.67 31.2791H1069.44ZM1069.25 31.7304C1069.25 31.7552 1069.28 31.78 1069.31 31.78H1069.4C1069.43 31.78 1069.45 31.7552 1069.45 31.7304V31.4478H1069.61L1069.73 31.7453C1069.74 31.7651 1069.76 31.78 1069.78 31.78H1069.89C1069.93 31.78 1069.95 31.7453 1069.94 31.7106C1069.89 31.6213 1069.85 31.5271 1069.8 31.4329C1069.88 31.4081 1069.99 31.3337 1069.99 31.1552C1069.99 30.9667 1069.84 30.8576 1069.68 30.8576H1069.31C1069.28 30.8576 1069.25 30.8824 1069.25 30.9072V31.7304ZM1068.85 31.3188C1068.85 30.9171 1069.18 30.5898 1069.59 30.5898C1069.99 30.5898 1070.32 30.9122 1070.32 31.3188C1070.32 31.7205 1070 32.0478 1069.59 32.0478C1069.17 32.0478 1068.85 31.7205 1068.85 31.3188ZM1068.67 31.3188C1068.67 31.8147 1069.08 32.2214 1069.59 32.2214C1070.09 32.2214 1070.5 31.8147 1070.5 31.3188C1070.5 30.8229 1070.09 30.4163 1069.59 30.4163C1069.08 30.4163 1068.67 30.8229 1068.67 31.3188Z" fill="#FFC124"/>
<path d="M1246.7 36.9339L1256.37 26.1691L1246.7 15.4028H1256.9L1261.69 20.6324L1266.3 15.4028H1276.15L1266.52 26.1247L1276.28 36.9339H1266.04L1261.29 31.6614L1256.59 36.9339H1246.7Z" fill="#FF6600"/>
<path d="M1246.7 10.5762H1235.75V15.4027H1246.7V22.6766H1235.75V29.3532H1246.7V36.9338H1227.71V3.0166H1246.7V10.5762Z" fill="#FF6600"/>
<path d="M1219.69 3.0166V16.8971H1219.6C1217.83 14.8762 1215.61 14.174 1213.04 14.174C1207.77 14.174 1203.8 17.7233 1202.41 22.4159C1200.82 17.2453 1196.72 14.0771 1190.65 14.0771C1185.72 14.0771 1181.82 16.2718 1179.79 19.8481V15.4032H1169.59V10.5772H1180.72V3.0166H1160.5V36.9343H1169.59V22.6766H1178.65C1178.38 23.724 1178.23 24.8454 1178.23 26.0286C1178.23 33.1038 1183.69 38.0681 1190.65 38.0681C1196.5 38.0681 1200.36 35.3449 1202.4 30.3801H1194.61C1193.56 31.8715 1192.76 32.3146 1190.65 32.3146C1188.21 32.3146 1186.1 30.2023 1186.1 27.6984H1201.96C1202.65 33.318 1207.07 38.1645 1213.13 38.1645C1215.75 38.1645 1218.14 36.8898 1219.6 34.7376H1219.69V36.9333H1227.71V3.0166H1219.69ZM1186.35 22.778C1186.86 20.6238 1188.54 19.2157 1190.65 19.2157C1192.97 19.2157 1194.57 20.5803 1194.99 22.778C1195.16 22.778 1186.35 22.778 1186.35 22.778ZM1214.83 31.7696C1211.87 31.7696 1210.04 29.042 1210.04 26.194C1210.04 23.1496 1211.64 20.2222 1214.83 20.2222C1218.14 20.2222 1219.46 23.1496 1219.46 26.194C1219.46 29.0809 1218.06 31.7696 1214.83 31.7696Z" fill="#652C8F"/>
</svg>
