<svg width="17" height="17" viewBox="0 0 17 17" fill="none" xmlns="http://www.w3.org/2000/svg">
<path d="M14.9469 10.5087C13.967 10.5087 13.0049 10.3554 12.0931 10.054C11.6464 9.9016 11.0971 10.0414 10.8245 10.3216L9.02486 11.6805C6.93783 10.5661 5.65225 9.28055 4.5534 7.20854L5.87195 5.45528C6.21451 5.11307 6.33739 4.61317 6.19017 4.14413C5.88758 3.22731 5.73386 2.26533 5.73386 1.28472C5.7339 0.576318 5.15776 0 4.44962 0H1.51036C0.802215 0 0.226074 0.576318 0.226074 1.28468C0.226074 9.40433 6.82975 16.01 14.9469 16.01C15.655 16.01 16.2312 15.4337 16.2312 14.7253V11.7934C16.2311 11.085 15.655 10.5087 14.9469 10.5087Z" fill="#32324B"/>
</svg>
