<svg width="50" height="50" viewBox="0 0 50 50" fill="none" xmlns="http://www.w3.org/2000/svg">
<circle opacity="0.1" cx="25" cy="25" r="25" fill="#00BB98"/>
<path opacity="0.4" d="M29.676 15H20.333C16.93 15 15 16.929 15 20.333V29.667C15 33.07 16.929 35 20.333 35H29.676C33.08 35 35 33.071 35 29.667V20.333C35 16.93 33.08 15 29.676 15Z" fill="#00BB98"/>
<path d="M20.369 22.369C20.1486 22.3706 19.9378 22.4594 19.7828 22.6161C19.6278 22.7728 19.5412 22.9846 19.542 23.205V30.075C19.542 30.2954 19.6295 30.5068 19.7854 30.6626C19.9412 30.8184 20.1526 30.906 20.373 30.906C20.5934 30.906 20.8048 30.8184 20.9606 30.6626C21.1164 30.5068 21.204 30.2954 21.204 30.075V23.205C21.2041 23.0953 21.1826 22.9866 21.1407 22.8851C21.0988 22.7837 21.0373 22.6916 20.9598 22.6139C20.8822 22.5363 20.7901 22.4747 20.6888 22.4326C20.5874 22.3906 20.4787 22.369 20.369 22.369ZM25.035 19.089C24.8148 19.0908 24.6042 19.1798 24.4494 19.3365C24.2946 19.4932 24.2082 19.7048 24.209 19.925V30.075C24.209 30.2954 24.2965 30.5068 24.4524 30.6626C24.6082 30.8184 24.8196 30.906 25.04 30.906C25.2604 30.906 25.4718 30.8184 25.6276 30.6626C25.7834 30.5068 25.871 30.2954 25.871 30.075V19.926C25.8711 19.8162 25.8496 19.7074 25.8076 19.6059C25.7657 19.5044 25.7041 19.4122 25.6264 19.3346C25.5488 19.2569 25.4566 19.1953 25.3551 19.1534C25.2536 19.1114 25.1448 19.0899 25.035 19.09V19.089ZM29.64 25.997C29.5303 25.9969 29.4216 26.0184 29.3202 26.0603C29.2187 26.1022 29.1266 26.1637 29.0489 26.2412C28.9713 26.3188 28.9097 26.4108 28.8677 26.5122C28.8256 26.6136 28.804 26.7223 28.804 26.832V30.077C28.804 30.2975 28.8916 30.509 29.0475 30.6649C29.2035 30.8209 29.415 30.9085 29.6355 30.9085C29.856 30.9085 30.0675 30.8209 30.2235 30.6649C30.3794 30.509 30.467 30.2975 30.467 30.077V26.83C30.4675 26.6098 30.3808 26.3983 30.2258 26.2418C30.0709 26.0853 29.8602 25.9966 29.64 25.995" fill="#00BB98"/>
</svg>
