<svg width="100" height="100" viewBox="0 0 100 100" fill="none" xmlns="http://www.w3.org/2000/svg">
<g clip-path="url(#clip0_12_251)">
<path d="M93.7352 32.2513H6.03906V92.804H93.7352V32.2513Z" fill="#FD4C5C"/>
<path d="M81.6734 52.9183H63.417V91.2828H81.6734V52.9183Z" fill="#4FC2E9"/>
<path d="M92.7273 7.19604H6.93359V19.8548H92.7273V7.19604Z" fill="#E6E9ED"/>
<path d="M54.0656 53.1306H16.4805V78.188H54.0656V53.1306Z" fill="#4FC2E9"/>
<path d="M14.3926 51.0438V80.2766H56.1531V51.0438H14.3926ZM51.975 76.0987H18.5675V55.2186H51.975V76.0987Z" fill="#F5F7FA"/>
<path d="M60.3271 51.0438V92.8041H85.3822V51.0438H60.3271ZM81.2073 88.6292H64.5019V55.2186H81.2073V88.6292Z" fill="#F5F7FA"/>
<path d="M47.7838 65.6586C47.2039 65.6586 46.6851 65.8935 46.3068 66.2721L42.1321 70.4466C41.7535 70.8251 41.5186 71.3468 41.5186 71.9236C41.5186 73.0772 42.4555 74.0112 43.6091 74.0112C44.1829 74.0112 44.7046 73.7791 45.0831 73.4008L49.261 69.2229C49.6364 68.8475 49.8714 68.3227 49.8714 67.7489C49.8714 66.5953 48.9373 65.6586 47.7838 65.6586Z" fill="#3BAFDA"/>
<path d="M49.2612 60.8733C49.6366 60.4948 49.8716 59.9731 49.8716 59.3963C49.8716 58.2428 48.9378 57.309 47.784 57.309C47.2041 57.309 46.6854 57.541 46.3071 57.9193L33.7795 70.4467C33.401 70.8252 33.166 71.3469 33.166 71.9237C33.166 73.0772 34.0998 74.0112 35.2536 74.0112C35.8335 74.0112 36.3522 73.7792 36.7306 73.4009L49.2612 60.8733Z" fill="#3BAFDA"/>
<path d="M81.6714 69.8368H62.4147C61.2612 69.8368 60.3271 70.7704 60.3271 71.9242C60.3271 73.0779 61.261 74.0117 62.4147 74.0117H81.6714C82.8249 74.0117 83.7589 73.0779 83.7589 71.9242C83.7589 70.7704 82.8251 69.8368 81.6714 69.8368Z" fill="#F5F7FA"/>
<path d="M88.0676 46.8685C94.6562 46.8685 100 41.525 100 34.9361C100 34.3013 99.948 33.6787 99.8535 33.0716L99.7863 32.6962C99.7742 32.6382 99.765 32.5802 99.7558 32.5222L92.8406 15.5482H75.6592L78.5216 42.0955L78.9243 42.6022C81.1158 45.2083 84.3964 46.8685 88.0676 46.8685Z" fill="#FD4C5C"/>
<path d="M58.4785 15.5482L59.4305 42.0955C61.6095 44.9917 65.0762 46.8685 68.9765 46.8685C72.8827 46.8685 76.3433 44.9917 78.5223 42.0955L75.6599 15.5482H58.4785Z" fill="#E6E9ED"/>
<path d="M11.9293 46.8685C5.3406 46.8685 0 41.525 0 34.9361C0 34.3013 0.0486343 33.6787 0.146294 33.0716H0.143169L0.213288 32.6962C0.222468 32.6382 0.231648 32.5802 0.243758 32.5222L7.15901 15.5482H24.3375L21.4718 42.0955L21.0719 42.6022C18.8842 45.2083 15.6005 46.8685 11.9293 46.8685Z" fill="#FD4C5C"/>
<path d="M41.5188 15.5482L40.5635 42.0955C38.3876 44.9917 34.9239 46.8685 31.0177 46.8685C27.1174 46.8685 23.6507 44.9917 21.4717 42.0955L24.3374 15.5482H41.5188Z" fill="#E6E9ED"/>
<path d="M41.2969 15.5482L40.3447 42.0955C42.5176 44.9917 45.9846 46.8685 49.8876 46.8685C53.7907 46.8685 57.2576 44.9917 59.4303 42.0955L58.4783 15.5482H41.2969Z" fill="#FD4C5C"/>
<path d="M0.231648 32.5866C0.225593 32.6233 0.219538 32.6599 0.213288 32.6964L0.143169 33.0718H0.146294C0.0486343 33.679 0 34.3015 0 34.9363C0 41.525 5.3406 46.8687 11.9293 46.8687C15.6005 46.8687 18.8842 45.2085 21.0723 42.6024L21.4722 42.0957L22.5007 32.5864H0.231648V32.5866Z" fill="#FD4C5C"/>
<path d="M22.5002 32.5867L21.4717 42.096C23.6507 44.9921 27.1174 46.8689 31.0177 46.8689C34.9239 46.8689 38.3876 44.9921 40.5635 42.096L40.9053 32.5867H22.5002Z" fill="#F5F7FA"/>
<path d="M40.6865 32.5867L40.3447 42.096C42.5176 44.9921 45.9846 46.8689 49.8876 46.8689C53.7907 46.8689 57.2576 44.9921 59.4303 42.096L59.0887 32.5867H40.6865Z" fill="#FD4C5C"/>
<path d="M59.0889 32.5867L59.4305 42.096C61.6095 44.9921 65.0762 46.8689 68.9765 46.8689C72.8827 46.8689 76.3433 44.9921 78.5223 42.096L77.4969 32.5867H59.0889Z" fill="#F5F7FA"/>
<path d="M99.8534 33.0721L99.7862 32.6967C99.7802 32.66 99.771 32.6234 99.765 32.5869H77.4961L78.5215 42.0962L78.9243 42.6028C81.1155 45.209 84.3963 46.8692 88.0675 46.8692C94.6562 46.8692 99.9999 41.5257 99.9999 34.9368C99.9999 34.3018 99.9482 33.6791 99.8534 33.0721Z" fill="#FD4C5C"/>
</g>
<defs>
<clipPath id="clip0_12_251">
<rect width="100" height="100" fill="white"/>
</clipPath>
</defs>
</svg>
