<svg width="258" height="189" viewBox="0 0 258 189" fill="none" xmlns="http://www.w3.org/2000/svg">
<path d="M204.411 144.478C205.533 148.567 203.13 152.813 198.985 153.706C174.955 158.877 149.927 157.531 126.517 149.738C100.674 141.135 77.9616 125.062 61.253 103.551C44.5444 82.0401 34.5898 56.0576 32.6479 28.8892C30.706 1.7208 36.8641 -25.4133 50.3435 -49.0819C63.8229 -72.7504 84.0181 -91.8904 108.375 -104.081C132.732 -116.272 160.158 -120.967 187.183 -117.571C214.208 -114.175 239.62 -102.842 260.204 -85.004C278.85 -68.8455 292.776 -48.007 300.589 -24.7014C301.936 -20.681 299.51 -16.4482 295.421 -15.3266C291.331 -14.2049 287.13 -16.6209 285.755 -20.6317C278.764 -41.0112 266.498 -59.2305 250.147 -73.3996C231.859 -89.2486 209.281 -99.3183 185.269 -102.335C161.257 -105.353 136.889 -101.182 115.248 -90.3498C93.6066 -79.5182 75.6632 -62.5123 63.6868 -41.4828C51.7103 -20.4533 46.2389 3.65534 47.9642 27.7945C49.6896 51.9336 58.5342 75.019 73.3798 94.1314C88.2254 113.244 108.405 127.525 131.367 135.168C151.895 142.002 173.823 143.256 194.917 138.871C199.069 138.008 203.29 140.389 204.411 144.478Z" fill="#FFC83E"/>
<path d="M246.775 -38.9188C249.645 -41.0868 253.747 -40.5284 255.729 -37.527C265.683 -22.4537 271.507 -4.98564 272.558 13.1237C273.734 33.405 268.87 53.5798 258.581 71.0967C248.291 88.6136 233.038 102.686 214.751 111.534C196.464 120.383 175.963 123.609 155.842 120.807C135.721 118.004 116.883 109.297 101.71 95.7882C86.5369 82.2791 75.7106 64.574 70.6 44.9119C65.4894 25.2498 66.324 4.51376 72.9984 -14.674C78.958 -31.8068 89.3345 -47.0181 103.028 -58.7976C105.755 -61.143 109.854 -60.5589 112.022 -57.6892C114.19 -54.8195 113.603 -50.7529 110.899 -48.3824C99.2495 -38.1737 90.413 -25.0943 85.2999 -10.395C79.4719 6.35978 78.743 24.4665 83.2056 41.6354C87.6682 58.8044 97.1217 74.2644 110.371 86.0606C123.62 97.8568 140.069 105.459 157.639 107.907C175.209 110.354 193.11 107.536 209.078 99.8101C225.047 92.0838 238.365 79.7958 247.35 64.5C256.335 49.2042 260.582 31.5876 259.555 13.878C258.654 -1.65912 253.728 -16.6556 245.312 -29.6592C243.358 -32.6786 243.905 -36.7508 246.775 -38.9188Z" fill="#00BB98"/>
</svg>
